<mxfile host="Electron" modified="2024-04-03T07:50:09.525Z" agent="Mozilla/5.0 (Windows NT 10.0; Win64; x64) AppleWebKit/537.36 (KHTML, like Gecko) draw.io/22.0.3 Chrome/114.0.5735.289 Electron/25.8.4 Safari/537.36" etag="FwIXPwJqWvu0DdQhneAj" version="22.0.3" type="device" pages="2">
  <diagram name="Static" id="3YiR5nDh1zJgNDjiq7gY">
    <mxGraphModel dx="1727" dy="2179" grid="1" gridSize="10" guides="1" tooltips="1" connect="1" arrows="1" fold="1" page="1" pageScale="1" pageWidth="827" pageHeight="1169" math="0" shadow="0">
      <root>
        <mxCell id="0" />
        <mxCell id="1" parent="0" />
        <mxCell id="N8x3vL1Uv7EWYqCKv1zs-3" value="" style="edgeStyle=orthogonalEdgeStyle;rounded=0;orthogonalLoop=1;jettySize=auto;html=1;" parent="1" source="N8x3vL1Uv7EWYqCKv1zs-1" edge="1">
          <mxGeometry relative="1" as="geometry">
            <mxPoint x="120" y="40" as="targetPoint" />
          </mxGeometry>
        </mxCell>
        <mxCell id="N8x3vL1Uv7EWYqCKv1zs-1" value="Начало&lt;br&gt;" style="ellipse;whiteSpace=wrap;html=1;" parent="1" vertex="1">
          <mxGeometry x="40" y="10" width="160" height="40" as="geometry" />
        </mxCell>
        <mxCell id="N8x3vL1Uv7EWYqCKv1zs-7" value="" style="edgeStyle=orthogonalEdgeStyle;rounded=0;orthogonalLoop=1;jettySize=auto;html=1;" parent="1" source="N8x3vL1Uv7EWYqCKv1zs-5" target="N8x3vL1Uv7EWYqCKv1zs-6" edge="1">
          <mxGeometry relative="1" as="geometry" />
        </mxCell>
        <mxCell id="N8x3vL1Uv7EWYqCKv1zs-5" value="Initialize" style="shape=process;whiteSpace=wrap;html=1;backgroundOutline=1;" parent="1" vertex="1">
          <mxGeometry x="40" y="70" width="160" height="20" as="geometry" />
        </mxCell>
        <mxCell id="N8x3vL1Uv7EWYqCKv1zs-9" value="" style="edgeStyle=orthogonalEdgeStyle;rounded=0;orthogonalLoop=1;jettySize=auto;html=1;" parent="1" source="N8x3vL1Uv7EWYqCKv1zs-6" target="N8x3vL1Uv7EWYqCKv1zs-8" edge="1">
          <mxGeometry relative="1" as="geometry" />
        </mxCell>
        <mxCell id="N8x3vL1Uv7EWYqCKv1zs-6" value="1 to MaxNodes" style="rhombus;whiteSpace=wrap;html=1;" parent="1" vertex="1">
          <mxGeometry x="40" y="110" width="160" height="30" as="geometry" />
        </mxCell>
        <mxCell id="N8x3vL1Uv7EWYqCKv1zs-14" value="" style="edgeStyle=orthogonalEdgeStyle;rounded=0;orthogonalLoop=1;jettySize=auto;html=1;" parent="1" source="N8x3vL1Uv7EWYqCKv1zs-8" target="N8x3vL1Uv7EWYqCKv1zs-13" edge="1">
          <mxGeometry relative="1" as="geometry" />
        </mxCell>
        <mxCell id="N8x3vL1Uv7EWYqCKv1zs-8" value="nodes[i].next := i + 1;" style="rounded=0;whiteSpace=wrap;html=1;" parent="1" vertex="1">
          <mxGeometry x="40" y="160" width="160" height="20" as="geometry" />
        </mxCell>
        <mxCell id="N8x3vL1Uv7EWYqCKv1zs-10" value="" style="endArrow=classic;html=1;rounded=0;exitX=1;exitY=0.5;exitDx=0;exitDy=0;" parent="1" source="N8x3vL1Uv7EWYqCKv1zs-6" edge="1">
          <mxGeometry width="50" height="50" relative="1" as="geometry">
            <mxPoint x="200" y="120" as="sourcePoint" />
            <mxPoint x="120" y="190" as="targetPoint" />
            <Array as="points">
              <mxPoint x="210" y="125" />
              <mxPoint x="210" y="190" />
            </Array>
          </mxGeometry>
        </mxCell>
        <mxCell id="N8x3vL1Uv7EWYqCKv1zs-13" value="nodes[MaxNodes].next := 0&lt;br&gt;&amp;nbsp;head := 0&lt;br&gt;freeIndex := 1" style="rounded=0;whiteSpace=wrap;html=1;" parent="1" vertex="1">
          <mxGeometry x="40" y="200" width="160" height="50" as="geometry" />
        </mxCell>
        <mxCell id="N8x3vL1Uv7EWYqCKv1zs-15" value="" style="endArrow=classic;html=1;rounded=0;entryX=0.5;entryY=0;entryDx=0;entryDy=0;" parent="1" target="N8x3vL1Uv7EWYqCKv1zs-16" edge="1">
          <mxGeometry width="50" height="50" relative="1" as="geometry">
            <mxPoint x="120" y="250" as="sourcePoint" />
            <mxPoint x="120" y="280" as="targetPoint" />
          </mxGeometry>
        </mxCell>
        <mxCell id="N8x3vL1Uv7EWYqCKv1zs-16" value="Конец" style="ellipse;whiteSpace=wrap;html=1;" parent="1" vertex="1">
          <mxGeometry x="40" y="270" width="160" height="40" as="geometry" />
        </mxCell>
        <mxCell id="N8x3vL1Uv7EWYqCKv1zs-22" value="" style="edgeStyle=orthogonalEdgeStyle;rounded=0;orthogonalLoop=1;jettySize=auto;html=1;" parent="1" source="N8x3vL1Uv7EWYqCKv1zs-19" target="N8x3vL1Uv7EWYqCKv1zs-21" edge="1">
          <mxGeometry relative="1" as="geometry" />
        </mxCell>
        <mxCell id="N8x3vL1Uv7EWYqCKv1zs-19" value="Начало&lt;br&gt;" style="ellipse;whiteSpace=wrap;html=1;" parent="1" vertex="1">
          <mxGeometry x="40" y="330" width="160" height="40" as="geometry" />
        </mxCell>
        <mxCell id="N8x3vL1Uv7EWYqCKv1zs-24" value="" style="edgeStyle=orthogonalEdgeStyle;rounded=0;orthogonalLoop=1;jettySize=auto;html=1;" parent="1" source="N8x3vL1Uv7EWYqCKv1zs-21" target="N8x3vL1Uv7EWYqCKv1zs-23" edge="1">
          <mxGeometry relative="1" as="geometry" />
        </mxCell>
        <mxCell id="N8x3vL1Uv7EWYqCKv1zs-21" value="GetNode" style="shape=process;whiteSpace=wrap;html=1;backgroundOutline=1;" parent="1" vertex="1">
          <mxGeometry x="40" y="390" width="160" height="20" as="geometry" />
        </mxCell>
        <mxCell id="N8x3vL1Uv7EWYqCKv1zs-26" value="" style="edgeStyle=orthogonalEdgeStyle;rounded=0;orthogonalLoop=1;jettySize=auto;html=1;" parent="1" source="N8x3vL1Uv7EWYqCKv1zs-23" target="N8x3vL1Uv7EWYqCKv1zs-25" edge="1">
          <mxGeometry relative="1" as="geometry" />
        </mxCell>
        <mxCell id="N8x3vL1Uv7EWYqCKv1zs-23" value="index := freeIndex&lt;br&gt;&amp;nbsp; freeIndex := nodes[freeIndex].next&lt;br&gt;&amp;nbsp; nodes[index].next := 0&lt;br&gt;&amp;nbsp; GetNode := index" style="rounded=0;whiteSpace=wrap;html=1;" parent="1" vertex="1">
          <mxGeometry x="40" y="430" width="160" height="80" as="geometry" />
        </mxCell>
        <mxCell id="N8x3vL1Uv7EWYqCKv1zs-25" value="Конец" style="ellipse;whiteSpace=wrap;html=1;" parent="1" vertex="1">
          <mxGeometry x="40" y="530" width="160" height="40" as="geometry" />
        </mxCell>
        <mxCell id="N8x3vL1Uv7EWYqCKv1zs-30" value="" style="edgeStyle=orthogonalEdgeStyle;rounded=0;orthogonalLoop=1;jettySize=auto;html=1;" parent="1" source="N8x3vL1Uv7EWYqCKv1zs-27" target="N8x3vL1Uv7EWYqCKv1zs-28" edge="1">
          <mxGeometry relative="1" as="geometry" />
        </mxCell>
        <mxCell id="N8x3vL1Uv7EWYqCKv1zs-27" value="Начало&lt;br&gt;" style="ellipse;whiteSpace=wrap;html=1;" parent="1" vertex="1">
          <mxGeometry x="40" y="610" width="160" height="40" as="geometry" />
        </mxCell>
        <mxCell id="N8x3vL1Uv7EWYqCKv1zs-32" value="" style="edgeStyle=orthogonalEdgeStyle;rounded=0;orthogonalLoop=1;jettySize=auto;html=1;" parent="1" source="N8x3vL1Uv7EWYqCKv1zs-28" target="N8x3vL1Uv7EWYqCKv1zs-31" edge="1">
          <mxGeometry relative="1" as="geometry" />
        </mxCell>
        <mxCell id="N8x3vL1Uv7EWYqCKv1zs-28" value="ReleaseNode" style="shape=process;whiteSpace=wrap;html=1;backgroundOutline=1;" parent="1" vertex="1">
          <mxGeometry x="40" y="670" width="160" height="20" as="geometry" />
        </mxCell>
        <mxCell id="N8x3vL1Uv7EWYqCKv1zs-34" value="" style="edgeStyle=orthogonalEdgeStyle;rounded=0;orthogonalLoop=1;jettySize=auto;html=1;" parent="1" source="N8x3vL1Uv7EWYqCKv1zs-31" target="N8x3vL1Uv7EWYqCKv1zs-33" edge="1">
          <mxGeometry relative="1" as="geometry" />
        </mxCell>
        <mxCell id="N8x3vL1Uv7EWYqCKv1zs-31" value="&lt;div&gt;nodes[index].next := freeIndex&lt;/div&gt;&lt;div&gt;&amp;nbsp; freeIndex := index&lt;/div&gt;" style="rounded=0;whiteSpace=wrap;html=1;" parent="1" vertex="1">
          <mxGeometry x="40" y="710" width="160" height="40" as="geometry" />
        </mxCell>
        <mxCell id="N8x3vL1Uv7EWYqCKv1zs-33" value="Конец" style="ellipse;whiteSpace=wrap;html=1;" parent="1" vertex="1">
          <mxGeometry x="40" y="770" width="160" height="40" as="geometry" />
        </mxCell>
        <mxCell id="N8x3vL1Uv7EWYqCKv1zs-37" value="" style="edgeStyle=orthogonalEdgeStyle;rounded=0;orthogonalLoop=1;jettySize=auto;html=1;" parent="1" source="N8x3vL1Uv7EWYqCKv1zs-35" target="N8x3vL1Uv7EWYqCKv1zs-36" edge="1">
          <mxGeometry relative="1" as="geometry" />
        </mxCell>
        <mxCell id="N8x3vL1Uv7EWYqCKv1zs-35" value="Начало&lt;br&gt;" style="ellipse;whiteSpace=wrap;html=1;" parent="1" vertex="1">
          <mxGeometry x="40" y="850" width="160" height="40" as="geometry" />
        </mxCell>
        <mxCell id="N8x3vL1Uv7EWYqCKv1zs-39" style="edgeStyle=orthogonalEdgeStyle;rounded=0;orthogonalLoop=1;jettySize=auto;html=1;" parent="1" source="N8x3vL1Uv7EWYqCKv1zs-36" target="N8x3vL1Uv7EWYqCKv1zs-38" edge="1">
          <mxGeometry relative="1" as="geometry" />
        </mxCell>
        <mxCell id="N8x3vL1Uv7EWYqCKv1zs-36" value="AddNode" style="shape=process;whiteSpace=wrap;html=1;backgroundOutline=1;" parent="1" vertex="1">
          <mxGeometry x="40" y="910" width="160" height="20" as="geometry" />
        </mxCell>
        <mxCell id="N8x3vL1Uv7EWYqCKv1zs-41" value="" style="edgeStyle=orthogonalEdgeStyle;rounded=0;orthogonalLoop=1;jettySize=auto;html=1;" parent="1" source="N8x3vL1Uv7EWYqCKv1zs-38" target="N8x3vL1Uv7EWYqCKv1zs-40" edge="1">
          <mxGeometry relative="1" as="geometry" />
        </mxCell>
        <mxCell id="N8x3vL1Uv7EWYqCKv1zs-38" value="&lt;div&gt;&amp;nbsp;newNodeIndex := GetNode&lt;/div&gt;&lt;div&gt;&amp;nbsp; nodes[newNodeIndex].data := data&lt;/div&gt;" style="rounded=0;whiteSpace=wrap;html=1;" parent="1" vertex="1">
          <mxGeometry x="40" y="950" width="160" height="40" as="geometry" />
        </mxCell>
        <mxCell id="N8x3vL1Uv7EWYqCKv1zs-43" value="" style="edgeStyle=orthogonalEdgeStyle;rounded=0;orthogonalLoop=1;jettySize=auto;html=1;" parent="1" source="N8x3vL1Uv7EWYqCKv1zs-40" target="N8x3vL1Uv7EWYqCKv1zs-42" edge="1">
          <mxGeometry relative="1" as="geometry" />
        </mxCell>
        <mxCell id="N8x3vL1Uv7EWYqCKv1zs-40" value="head = 0&amp;nbsp;" style="rhombus;whiteSpace=wrap;html=1;" parent="1" vertex="1">
          <mxGeometry x="40" y="1010" width="160" height="40" as="geometry" />
        </mxCell>
        <mxCell id="N8x3vL1Uv7EWYqCKv1zs-42" value="head := newNodeIndex" style="rounded=0;whiteSpace=wrap;html=1;" parent="1" vertex="1">
          <mxGeometry x="40" y="1070" width="160" height="20" as="geometry" />
        </mxCell>
        <mxCell id="N8x3vL1Uv7EWYqCKv1zs-44" value="" style="endArrow=classic;html=1;rounded=0;exitX=1;exitY=0.5;exitDx=0;exitDy=0;entryX=0.5;entryY=0;entryDx=0;entryDy=0;" parent="1" source="N8x3vL1Uv7EWYqCKv1zs-40" target="N8x3vL1Uv7EWYqCKv1zs-45" edge="1">
          <mxGeometry width="50" height="50" relative="1" as="geometry">
            <mxPoint x="120" y="1090" as="sourcePoint" />
            <mxPoint x="120" y="1100" as="targetPoint" />
            <Array as="points">
              <mxPoint x="210" y="1030" />
              <mxPoint x="210" y="1110" />
              <mxPoint x="120" y="1110" />
            </Array>
          </mxGeometry>
        </mxCell>
        <mxCell id="N8x3vL1Uv7EWYqCKv1zs-45" value="&amp;nbsp;current := head" style="rounded=0;whiteSpace=wrap;html=1;" parent="1" vertex="1">
          <mxGeometry x="40" y="1119" width="160" height="20" as="geometry" />
        </mxCell>
        <mxCell id="N8x3vL1Uv7EWYqCKv1zs-49" value="" style="endArrow=classic;html=1;rounded=0;" parent="1" edge="1">
          <mxGeometry width="50" height="50" relative="1" as="geometry">
            <mxPoint x="120" y="1090" as="sourcePoint" />
            <mxPoint x="120" y="1150" as="targetPoint" />
            <Array as="points">
              <mxPoint x="120" y="1090" />
              <mxPoint x="120" y="1100" />
              <mxPoint x="20" y="1100" />
              <mxPoint x="20" y="1150" />
            </Array>
          </mxGeometry>
        </mxCell>
        <mxCell id="N8x3vL1Uv7EWYqCKv1zs-50" value="" style="endArrow=classic;html=1;rounded=0;" parent="1" edge="1">
          <mxGeometry width="50" height="50" relative="1" as="geometry">
            <mxPoint x="120" y="1139" as="sourcePoint" />
            <mxPoint x="120" y="1160" as="targetPoint" />
          </mxGeometry>
        </mxCell>
        <mxCell id="N8x3vL1Uv7EWYqCKv1zs-51" value="Пока&amp;nbsp;nodes[current].next &amp;lt;&amp;gt; 0&amp;nbsp;" style="rhombus;whiteSpace=wrap;html=1;" parent="1" vertex="1">
          <mxGeometry x="240" y="10" width="160" height="40" as="geometry" />
        </mxCell>
        <mxCell id="N8x3vL1Uv7EWYqCKv1zs-52" value="" style="endArrow=classic;html=1;rounded=0;" parent="1" edge="1">
          <mxGeometry width="50" height="50" relative="1" as="geometry">
            <mxPoint x="320" as="sourcePoint" />
            <mxPoint x="320" y="10" as="targetPoint" />
          </mxGeometry>
        </mxCell>
        <mxCell id="N8x3vL1Uv7EWYqCKv1zs-53" value="" style="endArrow=classic;html=1;rounded=0;" parent="1" target="N8x3vL1Uv7EWYqCKv1zs-54" edge="1">
          <mxGeometry width="50" height="50" relative="1" as="geometry">
            <mxPoint x="320" y="50" as="sourcePoint" />
            <mxPoint x="320" y="70" as="targetPoint" />
          </mxGeometry>
        </mxCell>
        <mxCell id="N8x3vL1Uv7EWYqCKv1zs-56" value="" style="edgeStyle=orthogonalEdgeStyle;rounded=0;orthogonalLoop=1;jettySize=auto;html=1;" parent="1" source="N8x3vL1Uv7EWYqCKv1zs-54" target="N8x3vL1Uv7EWYqCKv1zs-55" edge="1">
          <mxGeometry relative="1" as="geometry" />
        </mxCell>
        <mxCell id="N8x3vL1Uv7EWYqCKv1zs-54" value="&lt;div&gt;current := nodes[current].next&lt;/div&gt;&lt;div&gt;&amp;nbsp; &amp;nbsp; nodes[current].next := newNodeIndex&lt;/div&gt;" style="rounded=0;whiteSpace=wrap;html=1;" parent="1" vertex="1">
          <mxGeometry x="240" y="70" width="160" height="50" as="geometry" />
        </mxCell>
        <mxCell id="N8x3vL1Uv7EWYqCKv1zs-55" value="Конец" style="ellipse;whiteSpace=wrap;html=1;" parent="1" vertex="1">
          <mxGeometry x="240" y="140" width="160" height="40" as="geometry" />
        </mxCell>
        <mxCell id="N8x3vL1Uv7EWYqCKv1zs-59" value="" style="edgeStyle=orthogonalEdgeStyle;rounded=0;orthogonalLoop=1;jettySize=auto;html=1;" parent="1" source="N8x3vL1Uv7EWYqCKv1zs-57" target="N8x3vL1Uv7EWYqCKv1zs-58" edge="1">
          <mxGeometry relative="1" as="geometry" />
        </mxCell>
        <mxCell id="N8x3vL1Uv7EWYqCKv1zs-57" value="Начало&lt;br&gt;" style="ellipse;whiteSpace=wrap;html=1;" parent="1" vertex="1">
          <mxGeometry x="240" y="730" width="160" height="40" as="geometry" />
        </mxCell>
        <mxCell id="N8x3vL1Uv7EWYqCKv1zs-61" value="" style="edgeStyle=orthogonalEdgeStyle;rounded=0;orthogonalLoop=1;jettySize=auto;html=1;" parent="1" source="N8x3vL1Uv7EWYqCKv1zs-58" target="N8x3vL1Uv7EWYqCKv1zs-60" edge="1">
          <mxGeometry relative="1" as="geometry" />
        </mxCell>
        <mxCell id="N8x3vL1Uv7EWYqCKv1zs-58" value="PrintList" style="shape=process;whiteSpace=wrap;html=1;backgroundOutline=1;" parent="1" vertex="1">
          <mxGeometry x="240" y="790" width="160" height="20" as="geometry" />
        </mxCell>
        <mxCell id="N8x3vL1Uv7EWYqCKv1zs-63" value="" style="edgeStyle=orthogonalEdgeStyle;rounded=0;orthogonalLoop=1;jettySize=auto;html=1;" parent="1" source="N8x3vL1Uv7EWYqCKv1zs-60" target="N8x3vL1Uv7EWYqCKv1zs-62" edge="1">
          <mxGeometry relative="1" as="geometry" />
        </mxCell>
        <mxCell id="N8x3vL1Uv7EWYqCKv1zs-60" value="&amp;nbsp;current := head" style="rounded=0;whiteSpace=wrap;html=1;" parent="1" vertex="1">
          <mxGeometry x="240" y="830" width="160" height="20" as="geometry" />
        </mxCell>
        <mxCell id="N8x3vL1Uv7EWYqCKv1zs-62" value="Пока&amp;nbsp;current &amp;lt;&amp;gt; 0" style="rhombus;whiteSpace=wrap;html=1;" parent="1" vertex="1">
          <mxGeometry x="240" y="870" width="160" height="40" as="geometry" />
        </mxCell>
        <mxCell id="N8x3vL1Uv7EWYqCKv1zs-66" value="" style="endArrow=classic;html=1;rounded=0;" parent="1" edge="1">
          <mxGeometry width="50" height="50" relative="1" as="geometry">
            <mxPoint x="320" y="910" as="sourcePoint" />
            <mxPoint x="320" y="930" as="targetPoint" />
          </mxGeometry>
        </mxCell>
        <mxCell id="N8x3vL1Uv7EWYqCKv1zs-67" value="" style="endArrow=classic;html=1;rounded=0;" parent="1" edge="1">
          <mxGeometry width="50" height="50" relative="1" as="geometry">
            <mxPoint x="400" y="30" as="sourcePoint" />
            <mxPoint x="320" y="130" as="targetPoint" />
            <Array as="points">
              <mxPoint x="410" y="30" />
              <mxPoint x="410" y="130" />
            </Array>
          </mxGeometry>
        </mxCell>
        <mxCell id="N8x3vL1Uv7EWYqCKv1zs-71" value="" style="edgeStyle=orthogonalEdgeStyle;rounded=0;orthogonalLoop=1;jettySize=auto;html=1;" parent="1" source="N8x3vL1Uv7EWYqCKv1zs-69" target="N8x3vL1Uv7EWYqCKv1zs-70" edge="1">
          <mxGeometry relative="1" as="geometry" />
        </mxCell>
        <mxCell id="N8x3vL1Uv7EWYqCKv1zs-73" value="" style="edgeStyle=orthogonalEdgeStyle;rounded=0;orthogonalLoop=1;jettySize=auto;html=1;" parent="1" source="N8x3vL1Uv7EWYqCKv1zs-69" target="N8x3vL1Uv7EWYqCKv1zs-72" edge="1">
          <mxGeometry relative="1" as="geometry" />
        </mxCell>
        <mxCell id="N8x3vL1Uv7EWYqCKv1zs-69" value="Вводим nodes[current].data" style="shape=parallelogram;perimeter=parallelogramPerimeter;whiteSpace=wrap;html=1;fixedSize=1;" parent="1" vertex="1">
          <mxGeometry x="240" y="930" width="160" height="20" as="geometry" />
        </mxCell>
        <mxCell id="N8x3vL1Uv7EWYqCKv1zs-70" value="&amp;nbsp;current := nodes[current].nextead" style="rounded=0;whiteSpace=wrap;html=1;" parent="1" vertex="1">
          <mxGeometry x="240" y="970" width="160" height="40" as="geometry" />
        </mxCell>
        <mxCell id="N8x3vL1Uv7EWYqCKv1zs-72" value="Конец" style="ellipse;whiteSpace=wrap;html=1;" parent="1" vertex="1">
          <mxGeometry x="240" y="1030" width="160" height="40" as="geometry" />
        </mxCell>
        <mxCell id="N8x3vL1Uv7EWYqCKv1zs-85" value="" style="edgeStyle=orthogonalEdgeStyle;rounded=0;orthogonalLoop=1;jettySize=auto;html=1;" parent="1" source="N8x3vL1Uv7EWYqCKv1zs-81" target="N8x3vL1Uv7EWYqCKv1zs-84" edge="1">
          <mxGeometry relative="1" as="geometry" />
        </mxCell>
        <mxCell id="N8x3vL1Uv7EWYqCKv1zs-81" value="Начало" style="ellipse;whiteSpace=wrap;html=1;" parent="1" vertex="1">
          <mxGeometry x="810" y="-4" width="160" height="40" as="geometry" />
        </mxCell>
        <mxCell id="N8x3vL1Uv7EWYqCKv1zs-87" value="" style="edgeStyle=orthogonalEdgeStyle;rounded=0;orthogonalLoop=1;jettySize=auto;html=1;" parent="1" source="N8x3vL1Uv7EWYqCKv1zs-84" target="N8x3vL1Uv7EWYqCKv1zs-86" edge="1">
          <mxGeometry relative="1" as="geometry" />
        </mxCell>
        <mxCell id="N8x3vL1Uv7EWYqCKv1zs-84" value="InitializeList" style="shape=process;whiteSpace=wrap;html=1;backgroundOutline=1;" parent="1" vertex="1">
          <mxGeometry x="810" y="56" width="160" height="20" as="geometry" />
        </mxCell>
        <mxCell id="N8x3vL1Uv7EWYqCKv1zs-89" value="" style="edgeStyle=orthogonalEdgeStyle;rounded=0;orthogonalLoop=1;jettySize=auto;html=1;" parent="1" source="N8x3vL1Uv7EWYqCKv1zs-86" target="N8x3vL1Uv7EWYqCKv1zs-88" edge="1">
          <mxGeometry relative="1" as="geometry" />
        </mxCell>
        <mxCell id="N8x3vL1Uv7EWYqCKv1zs-86" value="repeat" style="rhombus;whiteSpace=wrap;html=1;" parent="1" vertex="1">
          <mxGeometry x="810" y="96" width="160" height="30" as="geometry" />
        </mxCell>
        <mxCell id="U68PbBdxVbYibU8G3xr8-3" value="" style="edgeStyle=orthogonalEdgeStyle;rounded=0;orthogonalLoop=1;jettySize=auto;html=1;" parent="1" source="N8x3vL1Uv7EWYqCKv1zs-88" target="U68PbBdxVbYibU8G3xr8-2" edge="1">
          <mxGeometry relative="1" as="geometry" />
        </mxCell>
        <mxCell id="N8x3vL1Uv7EWYqCKv1zs-88" value="&lt;div&gt;&amp;nbsp; &amp;nbsp; ClrScr&lt;/div&gt;&lt;div&gt;&amp;nbsp; &amp;nbsp; DisplayMenu&lt;/div&gt;&lt;div&gt;&amp;nbsp; &amp;nbsp;Вводим choise&lt;/div&gt;" style="rounded=0;whiteSpace=wrap;html=1;" parent="1" vertex="1">
          <mxGeometry x="810" y="146" width="160" height="50" as="geometry" />
        </mxCell>
        <mxCell id="LFFOdNNu3UQCqGsDbxxS-10" value="" style="edgeStyle=orthogonalEdgeStyle;rounded=0;orthogonalLoop=1;jettySize=auto;html=1;" parent="1" source="U68PbBdxVbYibU8G3xr8-2" target="LFFOdNNu3UQCqGsDbxxS-9" edge="1">
          <mxGeometry relative="1" as="geometry" />
        </mxCell>
        <mxCell id="U68PbBdxVbYibU8G3xr8-2" value="case choice of" style="rhombus;whiteSpace=wrap;html=1;" parent="1" vertex="1">
          <mxGeometry x="810" y="216" width="160" height="30" as="geometry" />
        </mxCell>
        <mxCell id="U68PbBdxVbYibU8G3xr8-9" value="" style="edgeStyle=orthogonalEdgeStyle;rounded=0;orthogonalLoop=1;jettySize=auto;html=1;" parent="1" source="U68PbBdxVbYibU8G3xr8-4" target="U68PbBdxVbYibU8G3xr8-8" edge="1">
          <mxGeometry relative="1" as="geometry" />
        </mxCell>
        <mxCell id="U68PbBdxVbYibU8G3xr8-4" value="AddNode(data)" style="rounded=0;whiteSpace=wrap;html=1;" parent="1" vertex="1">
          <mxGeometry x="810" y="300" width="160" height="20" as="geometry" />
        </mxCell>
        <mxCell id="LFFOdNNu3UQCqGsDbxxS-14" value="" style="edgeStyle=orthogonalEdgeStyle;rounded=0;orthogonalLoop=1;jettySize=auto;html=1;" parent="1" source="U68PbBdxVbYibU8G3xr8-8" target="LFFOdNNu3UQCqGsDbxxS-13" edge="1">
          <mxGeometry relative="1" as="geometry" />
        </mxCell>
        <mxCell id="U68PbBdxVbYibU8G3xr8-8" value="2:PrintList" style="shape=process;whiteSpace=wrap;html=1;backgroundOutline=1;" parent="1" vertex="1">
          <mxGeometry x="810" y="335" width="160" height="20" as="geometry" />
        </mxCell>
        <mxCell id="U68PbBdxVbYibU8G3xr8-21" value="" style="shape=link;html=1;rounded=0;" parent="1" edge="1">
          <mxGeometry width="100" relative="1" as="geometry">
            <mxPoint x="790" y="-4.000081380208336" as="sourcePoint" />
            <mxPoint x="790" y="1169.3334554036458" as="targetPoint" />
          </mxGeometry>
        </mxCell>
        <mxCell id="yX8gu1dB03SYR3pfhEST-3" value="" style="edgeStyle=orthogonalEdgeStyle;rounded=0;orthogonalLoop=1;jettySize=auto;html=1;" parent="1" source="yX8gu1dB03SYR3pfhEST-1" target="yX8gu1dB03SYR3pfhEST-2" edge="1">
          <mxGeometry relative="1" as="geometry" />
        </mxCell>
        <mxCell id="yX8gu1dB03SYR3pfhEST-1" value="Начало&lt;br&gt;" style="ellipse;whiteSpace=wrap;html=1;" parent="1" vertex="1">
          <mxGeometry x="240" y="200" width="160" height="40" as="geometry" />
        </mxCell>
        <mxCell id="yX8gu1dB03SYR3pfhEST-5" value="" style="edgeStyle=orthogonalEdgeStyle;rounded=0;orthogonalLoop=1;jettySize=auto;html=1;" parent="1" source="yX8gu1dB03SYR3pfhEST-2" target="yX8gu1dB03SYR3pfhEST-4" edge="1">
          <mxGeometry relative="1" as="geometry" />
        </mxCell>
        <mxCell id="yX8gu1dB03SYR3pfhEST-2" value="SubtractFromList" style="shape=process;whiteSpace=wrap;html=1;backgroundOutline=1;" parent="1" vertex="1">
          <mxGeometry x="240" y="260" width="160" height="20" as="geometry" />
        </mxCell>
        <mxCell id="yX8gu1dB03SYR3pfhEST-7" value="" style="edgeStyle=orthogonalEdgeStyle;rounded=0;orthogonalLoop=1;jettySize=auto;html=1;" parent="1" source="yX8gu1dB03SYR3pfhEST-4" target="yX8gu1dB03SYR3pfhEST-6" edge="1">
          <mxGeometry relative="1" as="geometry" />
        </mxCell>
        <mxCell id="yX8gu1dB03SYR3pfhEST-4" value="&lt;div&gt;current := head&lt;/div&gt;&lt;div&gt;&amp;nbsp; prev := 0&lt;/div&gt;" style="rounded=0;whiteSpace=wrap;html=1;" parent="1" vertex="1">
          <mxGeometry x="240" y="300" width="160" height="30" as="geometry" />
        </mxCell>
        <mxCell id="yX8gu1dB03SYR3pfhEST-9" style="edgeStyle=orthogonalEdgeStyle;rounded=0;orthogonalLoop=1;jettySize=auto;html=1;" parent="1" source="yX8gu1dB03SYR3pfhEST-6" target="yX8gu1dB03SYR3pfhEST-8" edge="1">
          <mxGeometry relative="1" as="geometry" />
        </mxCell>
        <mxCell id="yX8gu1dB03SYR3pfhEST-6" value="Пока current &amp;lt;&amp;gt;0" style="rhombus;whiteSpace=wrap;html=1;" parent="1" vertex="1">
          <mxGeometry x="240" y="350" width="160" height="30" as="geometry" />
        </mxCell>
        <mxCell id="yX8gu1dB03SYR3pfhEST-11" value="" style="edgeStyle=orthogonalEdgeStyle;rounded=0;orthogonalLoop=1;jettySize=auto;html=1;" parent="1" source="yX8gu1dB03SYR3pfhEST-8" target="yX8gu1dB03SYR3pfhEST-10" edge="1">
          <mxGeometry relative="1" as="geometry" />
        </mxCell>
        <mxCell id="yX8gu1dB03SYR3pfhEST-8" value="&amp;nbsp;Если nodes[current].data = value" style="rhombus;whiteSpace=wrap;html=1;" parent="1" vertex="1">
          <mxGeometry x="240" y="400" width="160" height="50" as="geometry" />
        </mxCell>
        <mxCell id="yX8gu1dB03SYR3pfhEST-13" value="" style="edgeStyle=orthogonalEdgeStyle;rounded=0;orthogonalLoop=1;jettySize=auto;html=1;" parent="1" source="yX8gu1dB03SYR3pfhEST-10" target="yX8gu1dB03SYR3pfhEST-12" edge="1">
          <mxGeometry relative="1" as="geometry" />
        </mxCell>
        <mxCell id="yX8gu1dB03SYR3pfhEST-10" value="Если&amp;nbsp;prev = 0" style="rhombus;whiteSpace=wrap;html=1;" parent="1" vertex="1">
          <mxGeometry x="240" y="470" width="160" height="20" as="geometry" />
        </mxCell>
        <mxCell id="yX8gu1dB03SYR3pfhEST-12" value="head := nodes[current].next" style="rounded=0;whiteSpace=wrap;html=1;" parent="1" vertex="1">
          <mxGeometry x="240" y="505" width="160" height="15" as="geometry" />
        </mxCell>
        <mxCell id="yX8gu1dB03SYR3pfhEST-14" value="" style="endArrow=classic;html=1;rounded=0;exitX=1.019;exitY=0.522;exitDx=0;exitDy=0;exitPerimeter=0;entryX=0.5;entryY=0;entryDx=0;entryDy=0;" parent="1" source="yX8gu1dB03SYR3pfhEST-10" target="yX8gu1dB03SYR3pfhEST-15" edge="1">
          <mxGeometry width="50" height="50" relative="1" as="geometry">
            <mxPoint x="400" y="480" as="sourcePoint" />
            <mxPoint x="480" y="510" as="targetPoint" />
            <Array as="points">
              <mxPoint x="494" y="480" />
            </Array>
          </mxGeometry>
        </mxCell>
        <mxCell id="yX8gu1dB03SYR3pfhEST-15" value="nodes[prev].next := nodes[current].next" style="rounded=0;whiteSpace=wrap;html=1;" parent="1" vertex="1">
          <mxGeometry x="414" y="505" width="160" height="25" as="geometry" />
        </mxCell>
        <mxCell id="yX8gu1dB03SYR3pfhEST-16" value="" style="endArrow=classic;html=1;rounded=0;" parent="1" edge="1">
          <mxGeometry width="50" height="50" relative="1" as="geometry">
            <mxPoint x="320" y="520" as="sourcePoint" />
            <mxPoint x="320" y="550" as="targetPoint" />
          </mxGeometry>
        </mxCell>
        <mxCell id="yX8gu1dB03SYR3pfhEST-22" value="" style="edgeStyle=orthogonalEdgeStyle;rounded=0;orthogonalLoop=1;jettySize=auto;html=1;" parent="1" source="yX8gu1dB03SYR3pfhEST-17" target="yX8gu1dB03SYR3pfhEST-21" edge="1">
          <mxGeometry relative="1" as="geometry" />
        </mxCell>
        <mxCell id="yX8gu1dB03SYR3pfhEST-17" value="&lt;div&gt;ReleaseNode(current)&lt;/div&gt;" style="rounded=0;whiteSpace=wrap;html=1;" parent="1" vertex="1">
          <mxGeometry x="240" y="550" width="160" height="20" as="geometry" />
        </mxCell>
        <mxCell id="yX8gu1dB03SYR3pfhEST-19" value="" style="endArrow=classic;html=1;rounded=0;exitX=0.5;exitY=1;exitDx=0;exitDy=0;" parent="1" source="yX8gu1dB03SYR3pfhEST-15" edge="1">
          <mxGeometry width="50" height="50" relative="1" as="geometry">
            <mxPoint x="500" y="530" as="sourcePoint" />
            <mxPoint x="320" y="540" as="targetPoint" />
            <Array as="points">
              <mxPoint x="494" y="540" />
            </Array>
          </mxGeometry>
        </mxCell>
        <mxCell id="yX8gu1dB03SYR3pfhEST-20" value="" style="endArrow=classic;html=1;rounded=0;" parent="1" edge="1">
          <mxGeometry width="50" height="50" relative="1" as="geometry">
            <mxPoint x="240" y="480" as="sourcePoint" />
            <mxPoint x="320" y="580" as="targetPoint" />
            <Array as="points">
              <mxPoint x="230" y="480" />
              <mxPoint x="230" y="580" />
            </Array>
          </mxGeometry>
        </mxCell>
        <mxCell id="yX8gu1dB03SYR3pfhEST-25" value="" style="edgeStyle=orthogonalEdgeStyle;rounded=0;orthogonalLoop=1;jettySize=auto;html=1;" parent="1" source="yX8gu1dB03SYR3pfhEST-21" target="yX8gu1dB03SYR3pfhEST-24" edge="1">
          <mxGeometry relative="1" as="geometry" />
        </mxCell>
        <mxCell id="yX8gu1dB03SYR3pfhEST-21" value="prev := current&lt;br&gt;current := nodes[current].next" style="rounded=0;whiteSpace=wrap;html=1;" parent="1" vertex="1">
          <mxGeometry x="240" y="590" width="160" height="40" as="geometry" />
        </mxCell>
        <mxCell id="yX8gu1dB03SYR3pfhEST-23" value="" style="endArrow=classic;html=1;rounded=0;" parent="1" edge="1">
          <mxGeometry width="50" height="50" relative="1" as="geometry">
            <mxPoint x="240" y="425" as="sourcePoint" />
            <mxPoint x="320" y="640" as="targetPoint" />
            <Array as="points">
              <mxPoint x="220" y="425" />
              <mxPoint x="220" y="640" />
            </Array>
          </mxGeometry>
        </mxCell>
        <mxCell id="yX8gu1dB03SYR3pfhEST-24" value="Конец" style="ellipse;whiteSpace=wrap;html=1;" parent="1" vertex="1">
          <mxGeometry x="240" y="670" width="160" height="40" as="geometry" />
        </mxCell>
        <mxCell id="yX8gu1dB03SYR3pfhEST-26" value="" style="endArrow=classic;html=1;rounded=0;exitX=0;exitY=0.5;exitDx=0;exitDy=0;" parent="1" source="yX8gu1dB03SYR3pfhEST-6" edge="1">
          <mxGeometry width="50" height="50" relative="1" as="geometry">
            <mxPoint x="240" y="370" as="sourcePoint" />
            <mxPoint x="320" y="650" as="targetPoint" />
            <Array as="points">
              <mxPoint x="210" y="365" />
              <mxPoint x="210" y="650" />
            </Array>
          </mxGeometry>
        </mxCell>
        <mxCell id="yX8gu1dB03SYR3pfhEST-29" value="" style="edgeStyle=orthogonalEdgeStyle;rounded=0;orthogonalLoop=1;jettySize=auto;html=1;" parent="1" source="yX8gu1dB03SYR3pfhEST-27" target="yX8gu1dB03SYR3pfhEST-28" edge="1">
          <mxGeometry relative="1" as="geometry" />
        </mxCell>
        <mxCell id="yX8gu1dB03SYR3pfhEST-27" value="Начало&lt;br&gt;" style="ellipse;whiteSpace=wrap;html=1;" parent="1" vertex="1">
          <mxGeometry x="610" width="160" height="40" as="geometry" />
        </mxCell>
        <mxCell id="yX8gu1dB03SYR3pfhEST-31" value="" style="edgeStyle=orthogonalEdgeStyle;rounded=0;orthogonalLoop=1;jettySize=auto;html=1;" parent="1" source="yX8gu1dB03SYR3pfhEST-28" target="yX8gu1dB03SYR3pfhEST-30" edge="1">
          <mxGeometry relative="1" as="geometry" />
        </mxCell>
        <mxCell id="yX8gu1dB03SYR3pfhEST-28" value="SearchInList" style="shape=process;whiteSpace=wrap;html=1;backgroundOutline=1;" parent="1" vertex="1">
          <mxGeometry x="610" y="55.67" width="160" height="20" as="geometry" />
        </mxCell>
        <mxCell id="yX8gu1dB03SYR3pfhEST-33" style="edgeStyle=orthogonalEdgeStyle;rounded=0;orthogonalLoop=1;jettySize=auto;html=1;" parent="1" source="yX8gu1dB03SYR3pfhEST-30" target="yX8gu1dB03SYR3pfhEST-32" edge="1">
          <mxGeometry relative="1" as="geometry" />
        </mxCell>
        <mxCell id="yX8gu1dB03SYR3pfhEST-30" value="&lt;div&gt;current := head;&lt;/div&gt;&lt;div&gt;&amp;nbsp; found := False&lt;/div&gt;" style="rounded=0;whiteSpace=wrap;html=1;" parent="1" vertex="1">
          <mxGeometry x="610" y="90" width="160" height="30" as="geometry" />
        </mxCell>
        <mxCell id="yX8gu1dB03SYR3pfhEST-35" value="" style="edgeStyle=orthogonalEdgeStyle;rounded=0;orthogonalLoop=1;jettySize=auto;html=1;" parent="1" source="yX8gu1dB03SYR3pfhEST-32" target="yX8gu1dB03SYR3pfhEST-34" edge="1">
          <mxGeometry relative="1" as="geometry" />
        </mxCell>
        <mxCell id="yX8gu1dB03SYR3pfhEST-32" value="Пока current &amp;lt;&amp;gt;0" style="rhombus;whiteSpace=wrap;html=1;" parent="1" vertex="1">
          <mxGeometry x="610" y="135.67000000000002" width="160" height="30" as="geometry" />
        </mxCell>
        <mxCell id="yX8gu1dB03SYR3pfhEST-38" value="" style="edgeStyle=orthogonalEdgeStyle;rounded=0;orthogonalLoop=1;jettySize=auto;html=1;" parent="1" source="yX8gu1dB03SYR3pfhEST-34" target="yX8gu1dB03SYR3pfhEST-37" edge="1">
          <mxGeometry relative="1" as="geometry" />
        </mxCell>
        <mxCell id="yX8gu1dB03SYR3pfhEST-34" value="Если nodes[current].data = value" style="rhombus;whiteSpace=wrap;html=1;" parent="1" vertex="1">
          <mxGeometry x="610" y="180" width="160" height="30" as="geometry" />
        </mxCell>
        <mxCell id="yX8gu1dB03SYR3pfhEST-42" value="" style="edgeStyle=orthogonalEdgeStyle;rounded=0;orthogonalLoop=1;jettySize=auto;html=1;" parent="1" source="yX8gu1dB03SYR3pfhEST-36" target="yX8gu1dB03SYR3pfhEST-40" edge="1">
          <mxGeometry relative="1" as="geometry" />
        </mxCell>
        <mxCell id="yX8gu1dB03SYR3pfhEST-36" value="found := True" style="rounded=0;whiteSpace=wrap;html=1;" parent="1" vertex="1">
          <mxGeometry x="610" y="260" width="160" height="14.33" as="geometry" />
        </mxCell>
        <mxCell id="yX8gu1dB03SYR3pfhEST-39" value="" style="edgeStyle=orthogonalEdgeStyle;rounded=0;orthogonalLoop=1;jettySize=auto;html=1;" parent="1" source="yX8gu1dB03SYR3pfhEST-37" target="yX8gu1dB03SYR3pfhEST-36" edge="1">
          <mxGeometry relative="1" as="geometry" />
        </mxCell>
        <mxCell id="yX8gu1dB03SYR3pfhEST-37" value="Выводим" style="shape=parallelogram;perimeter=parallelogramPerimeter;whiteSpace=wrap;html=1;fixedSize=1;" parent="1" vertex="1">
          <mxGeometry x="610" y="225.67" width="160" height="14.33" as="geometry" />
        </mxCell>
        <mxCell id="yX8gu1dB03SYR3pfhEST-46" value="" style="edgeStyle=orthogonalEdgeStyle;rounded=0;orthogonalLoop=1;jettySize=auto;html=1;" parent="1" source="yX8gu1dB03SYR3pfhEST-40" target="yX8gu1dB03SYR3pfhEST-45" edge="1">
          <mxGeometry relative="1" as="geometry" />
        </mxCell>
        <mxCell id="yX8gu1dB03SYR3pfhEST-40" value="current := nodes[current].next" style="rounded=0;whiteSpace=wrap;html=1;" parent="1" vertex="1">
          <mxGeometry x="610" y="295.66999999999996" width="160" height="14.33" as="geometry" />
        </mxCell>
        <mxCell id="yX8gu1dB03SYR3pfhEST-43" value="" style="endArrow=classic;html=1;rounded=0;" parent="1" edge="1">
          <mxGeometry width="50" height="50" relative="1" as="geometry">
            <mxPoint x="770" y="195" as="sourcePoint" />
            <mxPoint x="690" y="280" as="targetPoint" />
            <Array as="points">
              <mxPoint x="780" y="195" />
              <mxPoint x="780" y="280" />
            </Array>
          </mxGeometry>
        </mxCell>
        <mxCell id="yX8gu1dB03SYR3pfhEST-49" value="" style="edgeStyle=orthogonalEdgeStyle;rounded=0;orthogonalLoop=1;jettySize=auto;html=1;" parent="1" source="yX8gu1dB03SYR3pfhEST-45" target="yX8gu1dB03SYR3pfhEST-48" edge="1">
          <mxGeometry relative="1" as="geometry" />
        </mxCell>
        <mxCell id="yX8gu1dB03SYR3pfhEST-45" value="Если&amp;nbsp;not found" style="rhombus;whiteSpace=wrap;html=1;" parent="1" vertex="1">
          <mxGeometry x="610" y="330" width="160" height="30" as="geometry" />
        </mxCell>
        <mxCell id="yX8gu1dB03SYR3pfhEST-47" value="" style="endArrow=classic;html=1;rounded=0;" parent="1" edge="1">
          <mxGeometry width="50" height="50" relative="1" as="geometry">
            <mxPoint x="610" y="150" as="sourcePoint" />
            <mxPoint x="690" y="320" as="targetPoint" />
            <Array as="points">
              <mxPoint x="600" y="150" />
              <mxPoint x="600" y="320" />
            </Array>
          </mxGeometry>
        </mxCell>
        <mxCell id="yX8gu1dB03SYR3pfhEST-51" value="" style="edgeStyle=orthogonalEdgeStyle;rounded=0;orthogonalLoop=1;jettySize=auto;html=1;" parent="1" source="yX8gu1dB03SYR3pfhEST-48" target="yX8gu1dB03SYR3pfhEST-50" edge="1">
          <mxGeometry relative="1" as="geometry" />
        </mxCell>
        <mxCell id="yX8gu1dB03SYR3pfhEST-48" value="Выводим" style="shape=parallelogram;perimeter=parallelogramPerimeter;whiteSpace=wrap;html=1;fixedSize=1;" parent="1" vertex="1">
          <mxGeometry x="610" y="375.67" width="160" height="14.33" as="geometry" />
        </mxCell>
        <mxCell id="yX8gu1dB03SYR3pfhEST-50" value="Конец" style="ellipse;whiteSpace=wrap;html=1;" parent="1" vertex="1">
          <mxGeometry x="610" y="405.67" width="160" height="40" as="geometry" />
        </mxCell>
        <mxCell id="yX8gu1dB03SYR3pfhEST-52" value="" style="endArrow=classic;html=1;rounded=0;" parent="1" edge="1">
          <mxGeometry width="50" height="50" relative="1" as="geometry">
            <mxPoint x="770" y="345.67" as="sourcePoint" />
            <mxPoint x="690" y="400" as="targetPoint" />
            <Array as="points">
              <mxPoint x="780" y="346" />
              <mxPoint x="780" y="400" />
            </Array>
          </mxGeometry>
        </mxCell>
        <mxCell id="LFFOdNNu3UQCqGsDbxxS-4" value="" style="edgeStyle=orthogonalEdgeStyle;rounded=0;orthogonalLoop=1;jettySize=auto;html=1;" parent="1" source="LFFOdNNu3UQCqGsDbxxS-1" target="LFFOdNNu3UQCqGsDbxxS-2" edge="1">
          <mxGeometry relative="1" as="geometry" />
        </mxCell>
        <mxCell id="LFFOdNNu3UQCqGsDbxxS-1" value="Начало&lt;br&gt;" style="ellipse;whiteSpace=wrap;html=1;" parent="1" vertex="1">
          <mxGeometry x="610" y="460" width="160" height="40" as="geometry" />
        </mxCell>
        <mxCell id="LFFOdNNu3UQCqGsDbxxS-6" value="" style="edgeStyle=orthogonalEdgeStyle;rounded=0;orthogonalLoop=1;jettySize=auto;html=1;" parent="1" source="LFFOdNNu3UQCqGsDbxxS-2" target="LFFOdNNu3UQCqGsDbxxS-5" edge="1">
          <mxGeometry relative="1" as="geometry" />
        </mxCell>
        <mxCell id="LFFOdNNu3UQCqGsDbxxS-2" value="DisplayMenu" style="shape=process;whiteSpace=wrap;html=1;backgroundOutline=1;" parent="1" vertex="1">
          <mxGeometry x="610" y="520" width="160" height="20" as="geometry" />
        </mxCell>
        <mxCell id="LFFOdNNu3UQCqGsDbxxS-8" value="" style="edgeStyle=orthogonalEdgeStyle;rounded=0;orthogonalLoop=1;jettySize=auto;html=1;" parent="1" source="LFFOdNNu3UQCqGsDbxxS-5" target="LFFOdNNu3UQCqGsDbxxS-7" edge="1">
          <mxGeometry relative="1" as="geometry" />
        </mxCell>
        <mxCell id="LFFOdNNu3UQCqGsDbxxS-5" value="Выводим меню" style="shape=parallelogram;perimeter=parallelogramPerimeter;whiteSpace=wrap;html=1;fixedSize=1;" parent="1" vertex="1">
          <mxGeometry x="610" y="560" width="160" height="20" as="geometry" />
        </mxCell>
        <mxCell id="LFFOdNNu3UQCqGsDbxxS-7" value="Конец" style="ellipse;whiteSpace=wrap;html=1;" parent="1" vertex="1">
          <mxGeometry x="610" y="600" width="160" height="40" as="geometry" />
        </mxCell>
        <mxCell id="LFFOdNNu3UQCqGsDbxxS-11" value="" style="edgeStyle=orthogonalEdgeStyle;rounded=0;orthogonalLoop=1;jettySize=auto;html=1;" parent="1" source="LFFOdNNu3UQCqGsDbxxS-9" target="U68PbBdxVbYibU8G3xr8-4" edge="1">
          <mxGeometry relative="1" as="geometry" />
        </mxCell>
        <mxCell id="LFFOdNNu3UQCqGsDbxxS-9" value="1:Вводим data" style="shape=parallelogram;perimeter=parallelogramPerimeter;whiteSpace=wrap;html=1;fixedSize=1;" parent="1" vertex="1">
          <mxGeometry x="810" y="260" width="160" height="20" as="geometry" />
        </mxCell>
        <mxCell id="LFFOdNNu3UQCqGsDbxxS-16" value="" style="edgeStyle=orthogonalEdgeStyle;rounded=0;orthogonalLoop=1;jettySize=auto;html=1;" parent="1" source="LFFOdNNu3UQCqGsDbxxS-13" target="LFFOdNNu3UQCqGsDbxxS-15" edge="1">
          <mxGeometry relative="1" as="geometry" />
        </mxCell>
        <mxCell id="LFFOdNNu3UQCqGsDbxxS-13" value="3:Вводим&amp;nbsp;valueToSubtract" style="shape=parallelogram;perimeter=parallelogramPerimeter;whiteSpace=wrap;html=1;fixedSize=1;" parent="1" vertex="1">
          <mxGeometry x="810" y="370" width="160" height="20" as="geometry" />
        </mxCell>
        <mxCell id="LFFOdNNu3UQCqGsDbxxS-18" value="" style="edgeStyle=orthogonalEdgeStyle;rounded=0;orthogonalLoop=1;jettySize=auto;html=1;" parent="1" source="LFFOdNNu3UQCqGsDbxxS-15" target="LFFOdNNu3UQCqGsDbxxS-17" edge="1">
          <mxGeometry relative="1" as="geometry" />
        </mxCell>
        <mxCell id="LFFOdNNu3UQCqGsDbxxS-15" value="SubtractFromList" style="shape=process;whiteSpace=wrap;html=1;backgroundOutline=1;" parent="1" vertex="1">
          <mxGeometry x="810" y="405.67" width="160" height="20" as="geometry" />
        </mxCell>
        <mxCell id="LFFOdNNu3UQCqGsDbxxS-20" value="" style="edgeStyle=orthogonalEdgeStyle;rounded=0;orthogonalLoop=1;jettySize=auto;html=1;" parent="1" source="LFFOdNNu3UQCqGsDbxxS-17" target="LFFOdNNu3UQCqGsDbxxS-19" edge="1">
          <mxGeometry relative="1" as="geometry" />
        </mxCell>
        <mxCell id="LFFOdNNu3UQCqGsDbxxS-17" value="4.Вводим&amp;nbsp;searchValue" style="shape=parallelogram;perimeter=parallelogramPerimeter;whiteSpace=wrap;html=1;fixedSize=1;" parent="1" vertex="1">
          <mxGeometry x="810" y="440" width="160" height="20" as="geometry" />
        </mxCell>
        <mxCell id="LFFOdNNu3UQCqGsDbxxS-22" value="" style="edgeStyle=orthogonalEdgeStyle;rounded=0;orthogonalLoop=1;jettySize=auto;html=1;" parent="1" source="LFFOdNNu3UQCqGsDbxxS-19" target="LFFOdNNu3UQCqGsDbxxS-21" edge="1">
          <mxGeometry relative="1" as="geometry" />
        </mxCell>
        <mxCell id="LFFOdNNu3UQCqGsDbxxS-19" value="SearchInList" style="shape=process;whiteSpace=wrap;html=1;backgroundOutline=1;" parent="1" vertex="1">
          <mxGeometry x="810" y="480" width="160" height="20" as="geometry" />
        </mxCell>
        <mxCell id="LFFOdNNu3UQCqGsDbxxS-24" value="" style="edgeStyle=orthogonalEdgeStyle;rounded=0;orthogonalLoop=1;jettySize=auto;html=1;" parent="1" source="LFFOdNNu3UQCqGsDbxxS-21" target="LFFOdNNu3UQCqGsDbxxS-23" edge="1">
          <mxGeometry relative="1" as="geometry" />
        </mxCell>
        <mxCell id="LFFOdNNu3UQCqGsDbxxS-21" value="Выводим" style="shape=parallelogram;perimeter=parallelogramPerimeter;whiteSpace=wrap;html=1;fixedSize=1;" parent="1" vertex="1">
          <mxGeometry x="810" y="520" width="160" height="20" as="geometry" />
        </mxCell>
        <mxCell id="LFFOdNNu3UQCqGsDbxxS-32" value="" style="edgeStyle=orthogonalEdgeStyle;rounded=0;orthogonalLoop=1;jettySize=auto;html=1;" parent="1" source="LFFOdNNu3UQCqGsDbxxS-23" target="LFFOdNNu3UQCqGsDbxxS-31" edge="1">
          <mxGeometry relative="1" as="geometry" />
        </mxCell>
        <mxCell id="LFFOdNNu3UQCqGsDbxxS-23" value="5:&amp;nbsp;;" style="rounded=0;whiteSpace=wrap;html=1;" parent="1" vertex="1">
          <mxGeometry x="810" y="560" width="160" height="20" as="geometry" />
        </mxCell>
        <mxCell id="LFFOdNNu3UQCqGsDbxxS-26" value="Выводим" style="shape=parallelogram;perimeter=parallelogramPerimeter;whiteSpace=wrap;html=1;fixedSize=1;" parent="1" vertex="1">
          <mxGeometry x="980" y="375.67" width="160" height="14.33" as="geometry" />
        </mxCell>
        <mxCell id="LFFOdNNu3UQCqGsDbxxS-27" value="" style="endArrow=classic;html=1;rounded=0;entryX=0.5;entryY=0;entryDx=0;entryDy=0;" parent="1" target="LFFOdNNu3UQCqGsDbxxS-26" edge="1">
          <mxGeometry width="50" height="50" relative="1" as="geometry">
            <mxPoint x="970" y="230" as="sourcePoint" />
            <mxPoint x="1020" y="180" as="targetPoint" />
            <Array as="points">
              <mxPoint x="1060" y="230" />
            </Array>
          </mxGeometry>
        </mxCell>
        <mxCell id="LFFOdNNu3UQCqGsDbxxS-28" value="" style="endArrow=classic;html=1;rounded=0;exitX=0.5;exitY=1;exitDx=0;exitDy=0;" parent="1" source="LFFOdNNu3UQCqGsDbxxS-26" edge="1">
          <mxGeometry width="50" height="50" relative="1" as="geometry">
            <mxPoint x="1070" y="550" as="sourcePoint" />
            <mxPoint x="890" y="600" as="targetPoint" />
            <Array as="points">
              <mxPoint x="1060" y="600" />
            </Array>
          </mxGeometry>
        </mxCell>
        <mxCell id="LFFOdNNu3UQCqGsDbxxS-29" value="" style="endArrow=classic;html=1;rounded=0;exitX=0;exitY=0.5;exitDx=0;exitDy=0;" parent="1" source="N8x3vL1Uv7EWYqCKv1zs-86" edge="1">
          <mxGeometry width="50" height="50" relative="1" as="geometry">
            <mxPoint x="1030" y="420" as="sourcePoint" />
            <mxPoint x="890" y="620" as="targetPoint" />
            <Array as="points">
              <mxPoint x="800" y="111" />
              <mxPoint x="800" y="620" />
            </Array>
          </mxGeometry>
        </mxCell>
        <mxCell id="LFFOdNNu3UQCqGsDbxxS-31" value="Конец" style="ellipse;whiteSpace=wrap;html=1;" parent="1" vertex="1">
          <mxGeometry x="810" y="630" width="160" height="40" as="geometry" />
        </mxCell>
      </root>
    </mxGraphModel>
  </diagram>
  <diagram id="ksPDaJLvTvhqn7h1g6HF" name="Main">
    <mxGraphModel dx="2072" dy="1212" grid="1" gridSize="10" guides="1" tooltips="1" connect="1" arrows="1" fold="1" page="1" pageScale="1" pageWidth="827" pageHeight="1169" math="0" shadow="0">
      <root>
        <mxCell id="0" />
        <mxCell id="1" parent="0" />
        <mxCell id="LnpvLxS2E-WMHGSATWVI-2" value="" style="edgeStyle=orthogonalEdgeStyle;rounded=0;orthogonalLoop=1;jettySize=auto;html=1;" parent="1" source="_270tEDTfhuw-6QxISlm-1" target="LnpvLxS2E-WMHGSATWVI-1" edge="1">
          <mxGeometry relative="1" as="geometry" />
        </mxCell>
        <mxCell id="_270tEDTfhuw-6QxISlm-1" value="Начало" style="rounded=1;whiteSpace=wrap;html=1;arcSize=60;" parent="1" vertex="1">
          <mxGeometry x="10" y="20" width="160" height="20" as="geometry" />
        </mxCell>
        <mxCell id="LnpvLxS2E-WMHGSATWVI-4" value="" style="edgeStyle=orthogonalEdgeStyle;rounded=0;orthogonalLoop=1;jettySize=auto;html=1;" parent="1" source="LnpvLxS2E-WMHGSATWVI-1" target="LnpvLxS2E-WMHGSATWVI-3" edge="1">
          <mxGeometry relative="1" as="geometry" />
        </mxCell>
        <mxCell id="LnpvLxS2E-WMHGSATWVI-1" value="AddNodeMoney" style="shape=process;whiteSpace=wrap;html=1;backgroundOutline=1;" parent="1" vertex="1">
          <mxGeometry x="10" y="60" width="160" height="20" as="geometry" />
        </mxCell>
        <mxCell id="LnpvLxS2E-WMHGSATWVI-6" value="" style="edgeStyle=orthogonalEdgeStyle;rounded=0;orthogonalLoop=1;jettySize=auto;html=1;" parent="1" source="LnpvLxS2E-WMHGSATWVI-3" target="LnpvLxS2E-WMHGSATWVI-5" edge="1">
          <mxGeometry relative="1" as="geometry" />
        </mxCell>
        <mxCell id="LnpvLxS2E-WMHGSATWVI-3" value="Вводим newMode, current: ^Node" style="shape=parallelogram;perimeter=parallelogramPerimeter;whiteSpace=wrap;html=1;fixedSize=1;" parent="1" vertex="1">
          <mxGeometry x="10" y="100" width="160" height="30" as="geometry" />
        </mxCell>
        <mxCell id="LnpvLxS2E-WMHGSATWVI-8" value="" style="edgeStyle=orthogonalEdgeStyle;rounded=0;orthogonalLoop=1;jettySize=auto;html=1;" parent="1" source="LnpvLxS2E-WMHGSATWVI-5" target="LnpvLxS2E-WMHGSATWVI-7" edge="1">
          <mxGeometry relative="1" as="geometry" />
        </mxCell>
        <mxCell id="LnpvLxS2E-WMHGSATWVI-5" value="New(newNode)&lt;br&gt;newNode^.data := data&lt;br&gt;newNode^.next := nil" style="rounded=0;whiteSpace=wrap;html=1;" parent="1" vertex="1">
          <mxGeometry x="10" y="150" width="160" height="40" as="geometry" />
        </mxCell>
        <mxCell id="LnpvLxS2E-WMHGSATWVI-10" value="" style="edgeStyle=orthogonalEdgeStyle;rounded=0;orthogonalLoop=1;jettySize=auto;html=1;" parent="1" source="LnpvLxS2E-WMHGSATWVI-7" target="LnpvLxS2E-WMHGSATWVI-9" edge="1">
          <mxGeometry relative="1" as="geometry" />
        </mxCell>
        <mxCell id="LnpvLxS2E-WMHGSATWVI-7" value="headDynamic = nil" style="rhombus;whiteSpace=wrap;html=1;" parent="1" vertex="1">
          <mxGeometry x="10" y="210" width="160" height="30" as="geometry" />
        </mxCell>
        <mxCell id="LnpvLxS2E-WMHGSATWVI-14" value="" style="edgeStyle=orthogonalEdgeStyle;rounded=0;orthogonalLoop=1;jettySize=auto;html=1;" parent="1" source="LnpvLxS2E-WMHGSATWVI-9" target="LnpvLxS2E-WMHGSATWVI-13" edge="1">
          <mxGeometry relative="1" as="geometry" />
        </mxCell>
        <mxCell id="LnpvLxS2E-WMHGSATWVI-9" value="headDynamic := newNode" style="rounded=0;whiteSpace=wrap;html=1;" parent="1" vertex="1">
          <mxGeometry x="10" y="260" width="160" height="20" as="geometry" />
        </mxCell>
        <mxCell id="LnpvLxS2E-WMHGSATWVI-11" value="" style="endArrow=classic;html=1;rounded=0;exitX=1;exitY=0.5;exitDx=0;exitDy=0;" parent="1" source="LnpvLxS2E-WMHGSATWVI-7" edge="1">
          <mxGeometry width="50" height="50" relative="1" as="geometry">
            <mxPoint x="170" y="230" as="sourcePoint" />
            <mxPoint x="90" y="290" as="targetPoint" />
            <Array as="points">
              <mxPoint x="180" y="225" />
              <mxPoint x="180" y="290" />
            </Array>
          </mxGeometry>
        </mxCell>
        <mxCell id="LnpvLxS2E-WMHGSATWVI-16" value="" style="edgeStyle=orthogonalEdgeStyle;rounded=0;orthogonalLoop=1;jettySize=auto;html=1;" parent="1" source="LnpvLxS2E-WMHGSATWVI-13" target="LnpvLxS2E-WMHGSATWVI-15" edge="1">
          <mxGeometry relative="1" as="geometry" />
        </mxCell>
        <mxCell id="LnpvLxS2E-WMHGSATWVI-13" value="current := headDynamic" style="rounded=0;whiteSpace=wrap;html=1;" parent="1" vertex="1">
          <mxGeometry x="10" y="300" width="160" height="20" as="geometry" />
        </mxCell>
        <mxCell id="LnpvLxS2E-WMHGSATWVI-18" value="" style="edgeStyle=orthogonalEdgeStyle;rounded=0;orthogonalLoop=1;jettySize=auto;html=1;" parent="1" source="LnpvLxS2E-WMHGSATWVI-15" target="LnpvLxS2E-WMHGSATWVI-17" edge="1">
          <mxGeometry relative="1" as="geometry" />
        </mxCell>
        <mxCell id="LnpvLxS2E-WMHGSATWVI-15" value="Цикл 1&lt;br&gt;current^.next &amp;lt;&amp;gt; nil" style="shape=loopLimit;whiteSpace=wrap;html=1;" parent="1" vertex="1">
          <mxGeometry x="10" y="340" width="160" height="30" as="geometry" />
        </mxCell>
        <mxCell id="LnpvLxS2E-WMHGSATWVI-20" value="" style="edgeStyle=orthogonalEdgeStyle;rounded=0;orthogonalLoop=1;jettySize=auto;html=1;" parent="1" source="LnpvLxS2E-WMHGSATWVI-17" target="LnpvLxS2E-WMHGSATWVI-19" edge="1">
          <mxGeometry relative="1" as="geometry" />
        </mxCell>
        <mxCell id="LnpvLxS2E-WMHGSATWVI-17" value="current := current^.next" style="rounded=0;whiteSpace=wrap;html=1;" parent="1" vertex="1">
          <mxGeometry x="10" y="390" width="160" height="20" as="geometry" />
        </mxCell>
        <mxCell id="LnpvLxS2E-WMHGSATWVI-22" value="" style="edgeStyle=orthogonalEdgeStyle;rounded=0;orthogonalLoop=1;jettySize=auto;html=1;" parent="1" source="LnpvLxS2E-WMHGSATWVI-19" target="LnpvLxS2E-WMHGSATWVI-21" edge="1">
          <mxGeometry relative="1" as="geometry" />
        </mxCell>
        <mxCell id="LnpvLxS2E-WMHGSATWVI-19" value="Цикл 1" style="shape=loopLimit;whiteSpace=wrap;html=1;direction=west;" parent="1" vertex="1">
          <mxGeometry x="10" y="430" width="160" height="20" as="geometry" />
        </mxCell>
        <mxCell id="LnpvLxS2E-WMHGSATWVI-24" value="" style="edgeStyle=orthogonalEdgeStyle;rounded=0;orthogonalLoop=1;jettySize=auto;html=1;" parent="1" source="LnpvLxS2E-WMHGSATWVI-21" target="LnpvLxS2E-WMHGSATWVI-23" edge="1">
          <mxGeometry relative="1" as="geometry" />
        </mxCell>
        <mxCell id="LnpvLxS2E-WMHGSATWVI-21" value="current^.next := newNode" style="rounded=0;whiteSpace=wrap;html=1;" parent="1" vertex="1">
          <mxGeometry x="10" y="470" width="160" height="20" as="geometry" />
        </mxCell>
        <mxCell id="LnpvLxS2E-WMHGSATWVI-23" value="Конец" style="rounded=1;whiteSpace=wrap;html=1;arcSize=60;" parent="1" vertex="1">
          <mxGeometry x="10" y="510" width="160" height="20" as="geometry" />
        </mxCell>
        <mxCell id="LnpvLxS2E-WMHGSATWVI-27" value="" style="edgeStyle=orthogonalEdgeStyle;rounded=0;orthogonalLoop=1;jettySize=auto;html=1;" parent="1" source="LnpvLxS2E-WMHGSATWVI-25" target="LnpvLxS2E-WMHGSATWVI-26" edge="1">
          <mxGeometry relative="1" as="geometry" />
        </mxCell>
        <mxCell id="LnpvLxS2E-WMHGSATWVI-25" value="Начало" style="rounded=1;whiteSpace=wrap;html=1;arcSize=60;" parent="1" vertex="1">
          <mxGeometry x="10" y="570" width="160" height="20" as="geometry" />
        </mxCell>
        <mxCell id="LnpvLxS2E-WMHGSATWVI-29" value="" style="edgeStyle=orthogonalEdgeStyle;rounded=0;orthogonalLoop=1;jettySize=auto;html=1;" parent="1" source="LnpvLxS2E-WMHGSATWVI-26" target="LnpvLxS2E-WMHGSATWVI-28" edge="1">
          <mxGeometry relative="1" as="geometry" />
        </mxCell>
        <mxCell id="LnpvLxS2E-WMHGSATWVI-26" value="AddNodeStatic" style="shape=process;whiteSpace=wrap;html=1;backgroundOutline=1;" parent="1" vertex="1">
          <mxGeometry x="10" y="610" width="160" height="20" as="geometry" />
        </mxCell>
        <mxCell id="LnpvLxS2E-WMHGSATWVI-31" value="" style="edgeStyle=orthogonalEdgeStyle;rounded=0;orthogonalLoop=1;jettySize=auto;html=1;" parent="1" source="LnpvLxS2E-WMHGSATWVI-28" target="LnpvLxS2E-WMHGSATWVI-30" edge="1">
          <mxGeometry relative="1" as="geometry" />
        </mxCell>
        <mxCell id="LnpvLxS2E-WMHGSATWVI-28" value="Вводим newNode, current: ^Node" style="shape=parallelogram;perimeter=parallelogramPerimeter;whiteSpace=wrap;html=1;fixedSize=1;" parent="1" vertex="1">
          <mxGeometry x="10" y="650" width="160" height="30" as="geometry" />
        </mxCell>
        <mxCell id="LnpvLxS2E-WMHGSATWVI-33" value="" style="edgeStyle=orthogonalEdgeStyle;rounded=0;orthogonalLoop=1;jettySize=auto;html=1;" parent="1" source="LnpvLxS2E-WMHGSATWVI-30" target="LnpvLxS2E-WMHGSATWVI-32" edge="1">
          <mxGeometry relative="1" as="geometry" />
        </mxCell>
        <mxCell id="LnpvLxS2E-WMHGSATWVI-30" value="&lt;div&gt;New(newNode)&lt;/div&gt;&lt;div&gt;&amp;nbsp; newNode^.data := data&lt;/div&gt;&lt;div&gt;&amp;nbsp; newNode^.next := nil&lt;/div&gt;" style="rounded=0;whiteSpace=wrap;html=1;" parent="1" vertex="1">
          <mxGeometry x="10" y="700" width="160" height="40" as="geometry" />
        </mxCell>
        <mxCell id="LnpvLxS2E-WMHGSATWVI-35" value="" style="edgeStyle=orthogonalEdgeStyle;rounded=0;orthogonalLoop=1;jettySize=auto;html=1;" parent="1" source="LnpvLxS2E-WMHGSATWVI-32" target="LnpvLxS2E-WMHGSATWVI-34" edge="1">
          <mxGeometry relative="1" as="geometry" />
        </mxCell>
        <mxCell id="LnpvLxS2E-WMHGSATWVI-32" value="headStatic = nil" style="rhombus;whiteSpace=wrap;html=1;" parent="1" vertex="1">
          <mxGeometry x="10" y="760" width="160" height="20" as="geometry" />
        </mxCell>
        <mxCell id="LnpvLxS2E-WMHGSATWVI-38" value="" style="edgeStyle=orthogonalEdgeStyle;rounded=0;orthogonalLoop=1;jettySize=auto;html=1;" parent="1" source="LnpvLxS2E-WMHGSATWVI-34" target="LnpvLxS2E-WMHGSATWVI-36" edge="1">
          <mxGeometry relative="1" as="geometry" />
        </mxCell>
        <mxCell id="LnpvLxS2E-WMHGSATWVI-34" value="&amp;nbsp;headStatic := newNode" style="rounded=0;whiteSpace=wrap;html=1;" parent="1" vertex="1">
          <mxGeometry x="10" y="800" width="160" height="20" as="geometry" />
        </mxCell>
        <mxCell id="LnpvLxS2E-WMHGSATWVI-40" value="" style="edgeStyle=orthogonalEdgeStyle;rounded=0;orthogonalLoop=1;jettySize=auto;html=1;" parent="1" source="LnpvLxS2E-WMHGSATWVI-36" target="LnpvLxS2E-WMHGSATWVI-39" edge="1">
          <mxGeometry relative="1" as="geometry" />
        </mxCell>
        <mxCell id="LnpvLxS2E-WMHGSATWVI-36" value="current := headStatic" style="rounded=0;whiteSpace=wrap;html=1;" parent="1" vertex="1">
          <mxGeometry x="10" y="840" width="160" height="20" as="geometry" />
        </mxCell>
        <mxCell id="LnpvLxS2E-WMHGSATWVI-37" value="" style="endArrow=classic;html=1;rounded=0;exitX=1;exitY=0.5;exitDx=0;exitDy=0;" parent="1" source="LnpvLxS2E-WMHGSATWVI-32" edge="1">
          <mxGeometry width="50" height="50" relative="1" as="geometry">
            <mxPoint x="80" y="780" as="sourcePoint" />
            <mxPoint x="90" y="830" as="targetPoint" />
            <Array as="points">
              <mxPoint x="180" y="770" />
              <mxPoint x="180" y="830" />
            </Array>
          </mxGeometry>
        </mxCell>
        <mxCell id="LnpvLxS2E-WMHGSATWVI-42" style="edgeStyle=orthogonalEdgeStyle;rounded=0;orthogonalLoop=1;jettySize=auto;html=1;entryX=0.5;entryY=0;entryDx=0;entryDy=0;" parent="1" source="LnpvLxS2E-WMHGSATWVI-39" target="LnpvLxS2E-WMHGSATWVI-41" edge="1">
          <mxGeometry relative="1" as="geometry" />
        </mxCell>
        <mxCell id="LnpvLxS2E-WMHGSATWVI-39" value="Цикл 1&lt;br&gt;current^.next &amp;lt;&amp;gt; nil" style="shape=loopLimit;whiteSpace=wrap;html=1;" parent="1" vertex="1">
          <mxGeometry x="10" y="880" width="160" height="30" as="geometry" />
        </mxCell>
        <mxCell id="LnpvLxS2E-WMHGSATWVI-44" value="" style="edgeStyle=orthogonalEdgeStyle;rounded=0;orthogonalLoop=1;jettySize=auto;html=1;" parent="1" source="LnpvLxS2E-WMHGSATWVI-41" target="LnpvLxS2E-WMHGSATWVI-43" edge="1">
          <mxGeometry relative="1" as="geometry" />
        </mxCell>
        <mxCell id="LnpvLxS2E-WMHGSATWVI-41" value="current := current^.next" style="rounded=0;whiteSpace=wrap;html=1;" parent="1" vertex="1">
          <mxGeometry x="10" y="930" width="160" height="20" as="geometry" />
        </mxCell>
        <mxCell id="LnpvLxS2E-WMHGSATWVI-46" value="" style="edgeStyle=orthogonalEdgeStyle;rounded=0;orthogonalLoop=1;jettySize=auto;html=1;" parent="1" source="LnpvLxS2E-WMHGSATWVI-43" target="LnpvLxS2E-WMHGSATWVI-45" edge="1">
          <mxGeometry relative="1" as="geometry" />
        </mxCell>
        <mxCell id="LnpvLxS2E-WMHGSATWVI-43" value="Цикл 1" style="shape=loopLimit;whiteSpace=wrap;html=1;direction=west;" parent="1" vertex="1">
          <mxGeometry x="10" y="970" width="160" height="20" as="geometry" />
        </mxCell>
        <mxCell id="LnpvLxS2E-WMHGSATWVI-48" style="edgeStyle=orthogonalEdgeStyle;rounded=0;orthogonalLoop=1;jettySize=auto;html=1;" parent="1" source="LnpvLxS2E-WMHGSATWVI-45" target="LnpvLxS2E-WMHGSATWVI-47" edge="1">
          <mxGeometry relative="1" as="geometry" />
        </mxCell>
        <mxCell id="LnpvLxS2E-WMHGSATWVI-45" value="current^.next := newNode" style="rounded=0;whiteSpace=wrap;html=1;" parent="1" vertex="1">
          <mxGeometry x="10" y="1010" width="160" height="20" as="geometry" />
        </mxCell>
        <mxCell id="LnpvLxS2E-WMHGSATWVI-47" value="Конец" style="rounded=1;whiteSpace=wrap;html=1;arcSize=60;" parent="1" vertex="1">
          <mxGeometry x="10" y="1050" width="160" height="20" as="geometry" />
        </mxCell>
        <mxCell id="LnpvLxS2E-WMHGSATWVI-49" value="" style="endArrow=none;html=1;rounded=0;" parent="1" edge="1">
          <mxGeometry width="50" height="50" relative="1" as="geometry">
            <mxPoint x="200" y="1160" as="sourcePoint" />
            <mxPoint x="200" as="targetPoint" />
          </mxGeometry>
        </mxCell>
        <mxCell id="LnpvLxS2E-WMHGSATWVI-52" value="" style="edgeStyle=orthogonalEdgeStyle;rounded=0;orthogonalLoop=1;jettySize=auto;html=1;" parent="1" source="LnpvLxS2E-WMHGSATWVI-50" target="LnpvLxS2E-WMHGSATWVI-51" edge="1">
          <mxGeometry relative="1" as="geometry" />
        </mxCell>
        <mxCell id="LnpvLxS2E-WMHGSATWVI-50" value="Начало" style="rounded=1;whiteSpace=wrap;html=1;arcSize=60;" parent="1" vertex="1">
          <mxGeometry x="220" y="20" width="160" height="20" as="geometry" />
        </mxCell>
        <mxCell id="LnpvLxS2E-WMHGSATWVI-54" value="" style="edgeStyle=orthogonalEdgeStyle;rounded=0;orthogonalLoop=1;jettySize=auto;html=1;" parent="1" source="LnpvLxS2E-WMHGSATWVI-51" target="LnpvLxS2E-WMHGSATWVI-53" edge="1">
          <mxGeometry relative="1" as="geometry" />
        </mxCell>
        <mxCell id="LnpvLxS2E-WMHGSATWVI-51" value="SubtractFromList" style="shape=process;whiteSpace=wrap;html=1;backgroundOutline=1;" parent="1" vertex="1">
          <mxGeometry x="220" y="60" width="160" height="20" as="geometry" />
        </mxCell>
        <mxCell id="LnpvLxS2E-WMHGSATWVI-56" style="edgeStyle=orthogonalEdgeStyle;rounded=0;orthogonalLoop=1;jettySize=auto;html=1;" parent="1" source="LnpvLxS2E-WMHGSATWVI-53" target="LnpvLxS2E-WMHGSATWVI-55" edge="1">
          <mxGeometry relative="1" as="geometry" />
        </mxCell>
        <mxCell id="LnpvLxS2E-WMHGSATWVI-53" value="Вводим&amp;nbsp;current, prev, temp: ^Node" style="shape=parallelogram;perimeter=parallelogramPerimeter;whiteSpace=wrap;html=1;fixedSize=1;" parent="1" vertex="1">
          <mxGeometry x="220" y="100" width="160" height="30" as="geometry" />
        </mxCell>
        <mxCell id="LnpvLxS2E-WMHGSATWVI-58" value="" style="edgeStyle=orthogonalEdgeStyle;rounded=0;orthogonalLoop=1;jettySize=auto;html=1;" parent="1" source="LnpvLxS2E-WMHGSATWVI-55" target="LnpvLxS2E-WMHGSATWVI-57" edge="1">
          <mxGeometry relative="1" as="geometry" />
        </mxCell>
        <mxCell id="LnpvLxS2E-WMHGSATWVI-55" value="isDynamic" style="rhombus;whiteSpace=wrap;html=1;" parent="1" vertex="1">
          <mxGeometry x="220" y="150" width="160" height="30" as="geometry" />
        </mxCell>
        <mxCell id="LnpvLxS2E-WMHGSATWVI-57" value="current := headDynamic" style="rounded=0;whiteSpace=wrap;html=1;" parent="1" vertex="1">
          <mxGeometry x="220" y="195" width="160" height="25" as="geometry" />
        </mxCell>
        <mxCell id="LnpvLxS2E-WMHGSATWVI-66" value="" style="edgeStyle=orthogonalEdgeStyle;rounded=0;orthogonalLoop=1;jettySize=auto;html=1;" parent="1" source="LnpvLxS2E-WMHGSATWVI-59" target="LnpvLxS2E-WMHGSATWVI-65" edge="1">
          <mxGeometry relative="1" as="geometry" />
        </mxCell>
        <mxCell id="LnpvLxS2E-WMHGSATWVI-59" value="prev := nil" style="rounded=0;whiteSpace=wrap;html=1;" parent="1" vertex="1">
          <mxGeometry x="220" y="290" width="160" height="25" as="geometry" />
        </mxCell>
        <mxCell id="LnpvLxS2E-WMHGSATWVI-63" value="" style="edgeStyle=orthogonalEdgeStyle;rounded=0;orthogonalLoop=1;jettySize=auto;html=1;" parent="1" source="LnpvLxS2E-WMHGSATWVI-62" target="LnpvLxS2E-WMHGSATWVI-59" edge="1">
          <mxGeometry relative="1" as="geometry" />
        </mxCell>
        <mxCell id="LnpvLxS2E-WMHGSATWVI-62" value="current := headStatic" style="rounded=0;whiteSpace=wrap;html=1;" parent="1" vertex="1">
          <mxGeometry x="220" y="240" width="160" height="25" as="geometry" />
        </mxCell>
        <mxCell id="LnpvLxS2E-WMHGSATWVI-64" value="" style="endArrow=classic;html=1;rounded=0;exitX=1;exitY=0.5;exitDx=0;exitDy=0;" parent="1" edge="1" source="LnpvLxS2E-WMHGSATWVI-55">
          <mxGeometry width="50" height="50" relative="1" as="geometry">
            <mxPoint x="380" y="210" as="sourcePoint" />
            <mxPoint x="300" y="280" as="targetPoint" />
            <Array as="points">
              <mxPoint x="390" y="165" />
              <mxPoint x="390" y="210" />
              <mxPoint x="390" y="280" />
            </Array>
          </mxGeometry>
        </mxCell>
        <mxCell id="LnpvLxS2E-WMHGSATWVI-68" value="" style="edgeStyle=orthogonalEdgeStyle;rounded=0;orthogonalLoop=1;jettySize=auto;html=1;" parent="1" source="LnpvLxS2E-WMHGSATWVI-65" target="LnpvLxS2E-WMHGSATWVI-67" edge="1">
          <mxGeometry relative="1" as="geometry" />
        </mxCell>
        <mxCell id="LnpvLxS2E-WMHGSATWVI-65" value="Цикл 1&lt;br&gt;current &amp;lt;&amp;gt; nil" style="shape=loopLimit;whiteSpace=wrap;html=1;" parent="1" vertex="1">
          <mxGeometry x="220" y="330" width="160" height="30" as="geometry" />
        </mxCell>
        <mxCell id="LnpvLxS2E-WMHGSATWVI-70" value="" style="edgeStyle=orthogonalEdgeStyle;rounded=0;orthogonalLoop=1;jettySize=auto;html=1;" parent="1" source="LnpvLxS2E-WMHGSATWVI-67" target="LnpvLxS2E-WMHGSATWVI-69" edge="1">
          <mxGeometry relative="1" as="geometry" />
        </mxCell>
        <mxCell id="LnpvLxS2E-WMHGSATWVI-67" value="current^.data = value" style="rhombus;whiteSpace=wrap;html=1;" parent="1" vertex="1">
          <mxGeometry x="220" y="380" width="160" height="30" as="geometry" />
        </mxCell>
        <mxCell id="LnpvLxS2E-WMHGSATWVI-69" value="prev = nil" style="rhombus;whiteSpace=wrap;html=1;" parent="1" vertex="1">
          <mxGeometry x="220" y="430" width="160" height="30" as="geometry" />
        </mxCell>
        <mxCell id="LnpvLxS2E-WMHGSATWVI-71" value="" style="endArrow=classic;html=1;rounded=0;exitX=0.5;exitY=1;exitDx=0;exitDy=0;" parent="1" source="LnpvLxS2E-WMHGSATWVI-69" edge="1">
          <mxGeometry width="50" height="50" relative="1" as="geometry">
            <mxPoint x="220" y="440" as="sourcePoint" />
            <mxPoint x="300" y="480" as="targetPoint" />
          </mxGeometry>
        </mxCell>
        <mxCell id="LnpvLxS2E-WMHGSATWVI-72" value="headDynamic := current^.next" style="rounded=0;whiteSpace=wrap;html=1;" parent="1" vertex="1">
          <mxGeometry x="220" y="477.5" width="160" height="30" as="geometry" />
        </mxCell>
        <mxCell id="LnpvLxS2E-WMHGSATWVI-74" value="&amp;nbsp;headStatic := current^.next&lt;br&gt;prev^.next := current^.next&lt;br&gt;Dispose(current)" style="rounded=0;whiteSpace=wrap;html=1;" parent="1" vertex="1">
          <mxGeometry x="220" y="530" width="160" height="40" as="geometry" />
        </mxCell>
        <mxCell id="LnpvLxS2E-WMHGSATWVI-76" value="" style="endArrow=classic;html=1;rounded=0;exitX=0.5;exitY=1;exitDx=0;exitDy=0;" parent="1" source="LnpvLxS2E-WMHGSATWVI-74" edge="1">
          <mxGeometry width="50" height="50" relative="1" as="geometry">
            <mxPoint x="390" y="550" as="sourcePoint" />
            <mxPoint x="300" y="590" as="targetPoint" />
          </mxGeometry>
        </mxCell>
        <mxCell id="LnpvLxS2E-WMHGSATWVI-81" value="" style="edgeStyle=orthogonalEdgeStyle;rounded=0;orthogonalLoop=1;jettySize=auto;html=1;" parent="1" source="LnpvLxS2E-WMHGSATWVI-78" target="LnpvLxS2E-WMHGSATWVI-80" edge="1">
          <mxGeometry relative="1" as="geometry" />
        </mxCell>
        <mxCell id="LnpvLxS2E-WMHGSATWVI-78" value="prev := current&lt;br&gt;current := current^.next" style="rounded=0;whiteSpace=wrap;html=1;" parent="1" vertex="1">
          <mxGeometry x="220" y="620" width="160" height="30" as="geometry" />
        </mxCell>
        <mxCell id="LnpvLxS2E-WMHGSATWVI-80" value="Конец" style="rounded=1;whiteSpace=wrap;html=1;arcSize=60;" parent="1" vertex="1">
          <mxGeometry x="220" y="670" width="160" height="20" as="geometry" />
        </mxCell>
        <mxCell id="LnpvLxS2E-WMHGSATWVI-82" value="" style="endArrow=none;html=1;rounded=0;" parent="1" edge="1">
          <mxGeometry width="50" height="50" relative="1" as="geometry">
            <mxPoint y="560" as="sourcePoint" />
            <mxPoint x="200" y="560" as="targetPoint" />
          </mxGeometry>
        </mxCell>
        <mxCell id="LnpvLxS2E-WMHGSATWVI-83" value="" style="endArrow=none;html=1;rounded=0;" parent="1" edge="1">
          <mxGeometry width="50" height="50" relative="1" as="geometry">
            <mxPoint x="400" y="1160" as="sourcePoint" />
            <mxPoint x="400" as="targetPoint" />
          </mxGeometry>
        </mxCell>
        <mxCell id="LnpvLxS2E-WMHGSATWVI-84" value="" style="endArrow=none;html=1;rounded=0;" parent="1" edge="1">
          <mxGeometry width="50" height="50" relative="1" as="geometry">
            <mxPoint x="200" y="699.41" as="sourcePoint" />
            <mxPoint x="400" y="699.41" as="targetPoint" />
          </mxGeometry>
        </mxCell>
        <mxCell id="LnpvLxS2E-WMHGSATWVI-87" value="" style="edgeStyle=orthogonalEdgeStyle;rounded=0;orthogonalLoop=1;jettySize=auto;html=1;" parent="1" source="LnpvLxS2E-WMHGSATWVI-85" target="LnpvLxS2E-WMHGSATWVI-86" edge="1">
          <mxGeometry relative="1" as="geometry" />
        </mxCell>
        <mxCell id="LnpvLxS2E-WMHGSATWVI-85" value="Начало" style="rounded=1;whiteSpace=wrap;html=1;arcSize=60;" parent="1" vertex="1">
          <mxGeometry x="220" y="709" width="160" height="20" as="geometry" />
        </mxCell>
        <mxCell id="LnpvLxS2E-WMHGSATWVI-89" value="" style="edgeStyle=orthogonalEdgeStyle;rounded=0;orthogonalLoop=1;jettySize=auto;html=1;" parent="1" source="LnpvLxS2E-WMHGSATWVI-86" target="LnpvLxS2E-WMHGSATWVI-88" edge="1">
          <mxGeometry relative="1" as="geometry" />
        </mxCell>
        <mxCell id="LnpvLxS2E-WMHGSATWVI-86" value="PrintList" style="shape=process;whiteSpace=wrap;html=1;backgroundOutline=1;" parent="1" vertex="1">
          <mxGeometry x="220" y="749" width="160" height="20" as="geometry" />
        </mxCell>
        <mxCell id="LnpvLxS2E-WMHGSATWVI-91" value="" style="edgeStyle=orthogonalEdgeStyle;rounded=0;orthogonalLoop=1;jettySize=auto;html=1;" parent="1" source="LnpvLxS2E-WMHGSATWVI-88" target="LnpvLxS2E-WMHGSATWVI-90" edge="1">
          <mxGeometry relative="1" as="geometry" />
        </mxCell>
        <mxCell id="LnpvLxS2E-WMHGSATWVI-88" value="current: ^Node" style="shape=parallelogram;perimeter=parallelogramPerimeter;whiteSpace=wrap;html=1;fixedSize=1;" parent="1" vertex="1">
          <mxGeometry x="220" y="789" width="160" height="20" as="geometry" />
        </mxCell>
        <mxCell id="LnpvLxS2E-WMHGSATWVI-93" value="" style="edgeStyle=orthogonalEdgeStyle;rounded=0;orthogonalLoop=1;jettySize=auto;html=1;" parent="1" source="LnpvLxS2E-WMHGSATWVI-90" target="LnpvLxS2E-WMHGSATWVI-92" edge="1">
          <mxGeometry relative="1" as="geometry" />
        </mxCell>
        <mxCell id="LnpvLxS2E-WMHGSATWVI-90" value="isDynamic" style="rhombus;whiteSpace=wrap;html=1;" parent="1" vertex="1">
          <mxGeometry x="220" y="829" width="160" height="20" as="geometry" />
        </mxCell>
        <mxCell id="LnpvLxS2E-WMHGSATWVI-92" value="current := headDynamic" style="rounded=0;whiteSpace=wrap;html=1;" parent="1" vertex="1">
          <mxGeometry x="220" y="869" width="160" height="20" as="geometry" />
        </mxCell>
        <mxCell id="LnpvLxS2E-WMHGSATWVI-97" value="" style="edgeStyle=orthogonalEdgeStyle;rounded=0;orthogonalLoop=1;jettySize=auto;html=1;" parent="1" source="LnpvLxS2E-WMHGSATWVI-94" target="LnpvLxS2E-WMHGSATWVI-96" edge="1">
          <mxGeometry relative="1" as="geometry" />
        </mxCell>
        <mxCell id="LnpvLxS2E-WMHGSATWVI-94" value="current := headStatic" style="rounded=0;whiteSpace=wrap;html=1;" parent="1" vertex="1">
          <mxGeometry x="220" y="909" width="160" height="20" as="geometry" />
        </mxCell>
        <mxCell id="LnpvLxS2E-WMHGSATWVI-102" value="" style="edgeStyle=orthogonalEdgeStyle;rounded=0;orthogonalLoop=1;jettySize=auto;html=1;" parent="1" source="LnpvLxS2E-WMHGSATWVI-96" target="LnpvLxS2E-WMHGSATWVI-100" edge="1">
          <mxGeometry relative="1" as="geometry" />
        </mxCell>
        <mxCell id="LnpvLxS2E-WMHGSATWVI-96" value="Цикл 1&lt;br&gt;current &amp;lt;&amp;gt; nil" style="shape=loopLimit;whiteSpace=wrap;html=1;" parent="1" vertex="1">
          <mxGeometry x="220" y="949" width="160" height="30" as="geometry" />
        </mxCell>
        <mxCell id="LnpvLxS2E-WMHGSATWVI-98" value="" style="endArrow=classic;html=1;rounded=0;exitX=1;exitY=0.5;exitDx=0;exitDy=0;" parent="1" edge="1">
          <mxGeometry width="50" height="50" relative="1" as="geometry">
            <mxPoint x="380" y="839" as="sourcePoint" />
            <mxPoint x="300" y="899" as="targetPoint" />
            <Array as="points">
              <mxPoint x="390" y="839" />
              <mxPoint x="390" y="899" />
            </Array>
          </mxGeometry>
        </mxCell>
        <mxCell id="LnpvLxS2E-WMHGSATWVI-104" value="" style="edgeStyle=orthogonalEdgeStyle;rounded=0;orthogonalLoop=1;jettySize=auto;html=1;" parent="1" source="LnpvLxS2E-WMHGSATWVI-100" target="LnpvLxS2E-WMHGSATWVI-103" edge="1">
          <mxGeometry relative="1" as="geometry" />
        </mxCell>
        <mxCell id="LnpvLxS2E-WMHGSATWVI-100" value="Выводим&amp;nbsp;current^.data" style="shape=parallelogram;perimeter=parallelogramPerimeter;whiteSpace=wrap;html=1;fixedSize=1;" parent="1" vertex="1">
          <mxGeometry x="220" y="999" width="160" height="40" as="geometry" />
        </mxCell>
        <mxCell id="LnpvLxS2E-WMHGSATWVI-106" value="" style="edgeStyle=orthogonalEdgeStyle;rounded=0;orthogonalLoop=1;jettySize=auto;html=1;" parent="1" source="LnpvLxS2E-WMHGSATWVI-103" target="LnpvLxS2E-WMHGSATWVI-105" edge="1">
          <mxGeometry relative="1" as="geometry" />
        </mxCell>
        <mxCell id="LnpvLxS2E-WMHGSATWVI-103" value="isDynamic&lt;span style=&quot;&quot;&gt;&lt;span style=&quot;white-space: pre;&quot;&gt;&amp;nbsp;&amp;nbsp;&amp;nbsp;&amp;nbsp;&lt;/span&gt;&lt;/span&gt;" style="rhombus;whiteSpace=wrap;html=1;" parent="1" vertex="1">
          <mxGeometry x="220" y="1059" width="160" height="20" as="geometry" />
        </mxCell>
        <mxCell id="LnpvLxS2E-WMHGSATWVI-105" value="current := current^.next" style="rounded=0;whiteSpace=wrap;html=1;" parent="1" vertex="1">
          <mxGeometry x="220" y="1099" width="160" height="20" as="geometry" />
        </mxCell>
        <mxCell id="LnpvLxS2E-WMHGSATWVI-107" value="current := current^.next" style="rounded=0;whiteSpace=wrap;html=1;" parent="1" vertex="1">
          <mxGeometry x="220" y="1139" width="160" height="20" as="geometry" />
        </mxCell>
        <mxCell id="LnpvLxS2E-WMHGSATWVI-111" value="" style="endArrow=none;html=1;rounded=0;" parent="1" edge="1">
          <mxGeometry width="50" height="50" relative="1" as="geometry">
            <mxPoint x="600" y="1160" as="sourcePoint" />
            <mxPoint x="600" as="targetPoint" />
          </mxGeometry>
        </mxCell>
        <mxCell id="LnpvLxS2E-WMHGSATWVI-112" value="" style="endArrow=classic;html=1;rounded=0;entryX=0.5;entryY=0;entryDx=0;entryDy=0;" parent="1" target="LnpvLxS2E-WMHGSATWVI-114" edge="1">
          <mxGeometry width="50" height="50" relative="1" as="geometry">
            <mxPoint x="300" y="1190" as="sourcePoint" />
            <mxPoint x="300" y="1210" as="targetPoint" />
          </mxGeometry>
        </mxCell>
        <mxCell id="LnpvLxS2E-WMHGSATWVI-114" value="Конец" style="rounded=1;whiteSpace=wrap;html=1;arcSize=60;" parent="1" vertex="1">
          <mxGeometry x="220" y="1210" width="160" height="20" as="geometry" />
        </mxCell>
        <mxCell id="LnpvLxS2E-WMHGSATWVI-118" value="" style="edgeStyle=orthogonalEdgeStyle;rounded=0;orthogonalLoop=1;jettySize=auto;html=1;" parent="1" source="LnpvLxS2E-WMHGSATWVI-116" target="LnpvLxS2E-WMHGSATWVI-117" edge="1">
          <mxGeometry relative="1" as="geometry" />
        </mxCell>
        <mxCell id="LnpvLxS2E-WMHGSATWVI-116" value="Начало" style="rounded=1;whiteSpace=wrap;html=1;arcSize=60;" parent="1" vertex="1">
          <mxGeometry x="420" y="20" width="160" height="20" as="geometry" />
        </mxCell>
        <mxCell id="LnpvLxS2E-WMHGSATWVI-120" value="" style="edgeStyle=orthogonalEdgeStyle;rounded=0;orthogonalLoop=1;jettySize=auto;html=1;" parent="1" source="LnpvLxS2E-WMHGSATWVI-117" target="LnpvLxS2E-WMHGSATWVI-119" edge="1">
          <mxGeometry relative="1" as="geometry" />
        </mxCell>
        <mxCell id="LnpvLxS2E-WMHGSATWVI-117" value="Вводим&amp;nbsp;current: ^Node,&amp;nbsp;found: Boolean" style="shape=parallelogram;perimeter=parallelogramPerimeter;whiteSpace=wrap;html=1;fixedSize=1;" parent="1" vertex="1">
          <mxGeometry x="420" y="60" width="160" height="30" as="geometry" />
        </mxCell>
        <mxCell id="LnpvLxS2E-WMHGSATWVI-122" value="" style="edgeStyle=orthogonalEdgeStyle;rounded=0;orthogonalLoop=1;jettySize=auto;html=1;" parent="1" source="LnpvLxS2E-WMHGSATWVI-119" target="LnpvLxS2E-WMHGSATWVI-121" edge="1">
          <mxGeometry relative="1" as="geometry" />
        </mxCell>
        <mxCell id="LnpvLxS2E-WMHGSATWVI-119" value="isDynamic" style="rhombus;whiteSpace=wrap;html=1;" parent="1" vertex="1">
          <mxGeometry x="420" y="100" width="160" height="30" as="geometry" />
        </mxCell>
        <mxCell id="LnpvLxS2E-WMHGSATWVI-121" value="current := headDynamic" style="rounded=0;whiteSpace=wrap;html=1;" parent="1" vertex="1">
          <mxGeometry x="420" y="150" width="160" height="20" as="geometry" />
        </mxCell>
        <mxCell id="LnpvLxS2E-WMHGSATWVI-127" value="" style="edgeStyle=orthogonalEdgeStyle;rounded=0;orthogonalLoop=1;jettySize=auto;html=1;" parent="1" source="LnpvLxS2E-WMHGSATWVI-123" target="LnpvLxS2E-WMHGSATWVI-125" edge="1">
          <mxGeometry relative="1" as="geometry" />
        </mxCell>
        <mxCell id="LnpvLxS2E-WMHGSATWVI-123" value="current := headStatic" style="rounded=0;whiteSpace=wrap;html=1;" parent="1" vertex="1">
          <mxGeometry x="420" y="190" width="160" height="20" as="geometry" />
        </mxCell>
        <mxCell id="LnpvLxS2E-WMHGSATWVI-129" value="" style="edgeStyle=orthogonalEdgeStyle;rounded=0;orthogonalLoop=1;jettySize=auto;html=1;" parent="1" source="LnpvLxS2E-WMHGSATWVI-125" target="LnpvLxS2E-WMHGSATWVI-128" edge="1">
          <mxGeometry relative="1" as="geometry" />
        </mxCell>
        <mxCell id="LnpvLxS2E-WMHGSATWVI-125" value="found := False" style="rounded=0;whiteSpace=wrap;html=1;" parent="1" vertex="1">
          <mxGeometry x="420" y="230" width="160" height="20" as="geometry" />
        </mxCell>
        <mxCell id="LnpvLxS2E-WMHGSATWVI-126" value="" style="endArrow=classic;html=1;rounded=0;exitX=1;exitY=0.5;exitDx=0;exitDy=0;strokeWidth=2;" parent="1" source="LnpvLxS2E-WMHGSATWVI-121" edge="1">
          <mxGeometry width="50" height="50" relative="1" as="geometry">
            <mxPoint x="450" y="200" as="sourcePoint" />
            <mxPoint x="500" y="220" as="targetPoint" />
            <Array as="points">
              <mxPoint x="600" y="160" />
              <mxPoint x="600" y="220" />
            </Array>
          </mxGeometry>
        </mxCell>
        <mxCell id="LnpvLxS2E-WMHGSATWVI-131" value="" style="edgeStyle=orthogonalEdgeStyle;rounded=0;orthogonalLoop=1;jettySize=auto;html=1;" parent="1" source="LnpvLxS2E-WMHGSATWVI-128" target="LnpvLxS2E-WMHGSATWVI-130" edge="1">
          <mxGeometry relative="1" as="geometry" />
        </mxCell>
        <mxCell id="LnpvLxS2E-WMHGSATWVI-128" value="Цикл 1&lt;br&gt;current &amp;lt;&amp;gt; nil" style="shape=loopLimit;whiteSpace=wrap;html=1;" parent="1" vertex="1">
          <mxGeometry x="420" y="270" width="160" height="30" as="geometry" />
        </mxCell>
        <mxCell id="LnpvLxS2E-WMHGSATWVI-130" value="current^.data = value" style="rhombus;whiteSpace=wrap;html=1;" parent="1" vertex="1">
          <mxGeometry x="420" y="320" width="160" height="30" as="geometry" />
        </mxCell>
        <mxCell id="LnpvLxS2E-WMHGSATWVI-132" value="" style="endArrow=classic;html=1;rounded=0;exitX=0.5;exitY=1;exitDx=0;exitDy=0;entryX=0.5;entryY=0;entryDx=0;entryDy=0;" parent="1" source="LnpvLxS2E-WMHGSATWVI-130" target="LnpvLxS2E-WMHGSATWVI-133" edge="1">
          <mxGeometry width="50" height="50" relative="1" as="geometry">
            <mxPoint x="420" y="350" as="sourcePoint" />
            <mxPoint x="500" y="370" as="targetPoint" />
          </mxGeometry>
        </mxCell>
        <mxCell id="LnpvLxS2E-WMHGSATWVI-135" value="" style="edgeStyle=orthogonalEdgeStyle;rounded=0;orthogonalLoop=1;jettySize=auto;html=1;" parent="1" source="LnpvLxS2E-WMHGSATWVI-133" target="LnpvLxS2E-WMHGSATWVI-134" edge="1">
          <mxGeometry relative="1" as="geometry" />
        </mxCell>
        <mxCell id="LnpvLxS2E-WMHGSATWVI-133" value="Выводим Найдено" style="shape=parallelogram;perimeter=parallelogramPerimeter;whiteSpace=wrap;html=1;fixedSize=1;" parent="1" vertex="1">
          <mxGeometry x="420" y="360" width="160" height="20" as="geometry" />
        </mxCell>
        <mxCell id="LnpvLxS2E-WMHGSATWVI-137" value="" style="edgeStyle=orthogonalEdgeStyle;rounded=0;orthogonalLoop=1;jettySize=auto;html=1;" parent="1" source="LnpvLxS2E-WMHGSATWVI-134" target="LnpvLxS2E-WMHGSATWVI-136" edge="1">
          <mxGeometry relative="1" as="geometry" />
        </mxCell>
        <mxCell id="LnpvLxS2E-WMHGSATWVI-134" value="found := True&lt;br&gt;Break&lt;br&gt;current := current^.next" style="rounded=0;whiteSpace=wrap;html=1;" parent="1" vertex="1">
          <mxGeometry x="420" y="392.5" width="160" height="37.5" as="geometry" />
        </mxCell>
        <mxCell id="LnpvLxS2E-WMHGSATWVI-139" value="" style="edgeStyle=orthogonalEdgeStyle;rounded=0;orthogonalLoop=1;jettySize=auto;html=1;" parent="1" source="LnpvLxS2E-WMHGSATWVI-136" target="LnpvLxS2E-WMHGSATWVI-138" edge="1">
          <mxGeometry relative="1" as="geometry" />
        </mxCell>
        <mxCell id="LnpvLxS2E-WMHGSATWVI-136" value="not found" style="rhombus;whiteSpace=wrap;html=1;" parent="1" vertex="1">
          <mxGeometry x="420" y="445" width="160" height="30" as="geometry" />
        </mxCell>
        <mxCell id="LnpvLxS2E-WMHGSATWVI-142" value="" style="edgeStyle=orthogonalEdgeStyle;rounded=0;orthogonalLoop=1;jettySize=auto;html=1;exitX=0.5;exitY=0;exitDx=0;exitDy=0;" parent="1" source="uM9r_w0jykjSQlXKHZ29-19" target="LnpvLxS2E-WMHGSATWVI-141" edge="1">
          <mxGeometry relative="1" as="geometry">
            <mxPoint x="500" y="560" as="sourcePoint" />
          </mxGeometry>
        </mxCell>
        <mxCell id="uM9r_w0jykjSQlXKHZ29-20" value="" style="edgeStyle=orthogonalEdgeStyle;rounded=0;orthogonalLoop=1;jettySize=auto;html=1;" edge="1" parent="1" source="LnpvLxS2E-WMHGSATWVI-138" target="uM9r_w0jykjSQlXKHZ29-19">
          <mxGeometry relative="1" as="geometry" />
        </mxCell>
        <mxCell id="LnpvLxS2E-WMHGSATWVI-138" value="Выводим Не найдено" style="shape=parallelogram;perimeter=parallelogramPerimeter;whiteSpace=wrap;html=1;fixedSize=1;" parent="1" vertex="1">
          <mxGeometry x="420" y="490" width="160" height="20" as="geometry" />
        </mxCell>
        <mxCell id="LnpvLxS2E-WMHGSATWVI-140" value="" style="endArrow=none;html=1;rounded=0;" parent="1" edge="1">
          <mxGeometry width="50" height="50" relative="1" as="geometry">
            <mxPoint x="400" y="589.44" as="sourcePoint" />
            <mxPoint x="600" y="589.44" as="targetPoint" />
          </mxGeometry>
        </mxCell>
        <mxCell id="LnpvLxS2E-WMHGSATWVI-141" value="Конец" style="rounded=1;whiteSpace=wrap;html=1;arcSize=60;" parent="1" vertex="1">
          <mxGeometry x="420" y="565" width="160" height="20" as="geometry" />
        </mxCell>
        <mxCell id="LnpvLxS2E-WMHGSATWVI-145" style="edgeStyle=orthogonalEdgeStyle;rounded=0;orthogonalLoop=1;jettySize=auto;html=1;entryX=0.5;entryY=0;entryDx=0;entryDy=0;" parent="1" source="LnpvLxS2E-WMHGSATWVI-143" target="LnpvLxS2E-WMHGSATWVI-144" edge="1">
          <mxGeometry relative="1" as="geometry" />
        </mxCell>
        <mxCell id="LnpvLxS2E-WMHGSATWVI-143" value="Начало" style="rounded=1;whiteSpace=wrap;html=1;arcSize=60;" parent="1" vertex="1">
          <mxGeometry x="420" y="595" width="160" height="20" as="geometry" />
        </mxCell>
        <mxCell id="LnpvLxS2E-WMHGSATWVI-147" value="" style="edgeStyle=orthogonalEdgeStyle;rounded=0;orthogonalLoop=1;jettySize=auto;html=1;" parent="1" source="LnpvLxS2E-WMHGSATWVI-144" target="LnpvLxS2E-WMHGSATWVI-146" edge="1">
          <mxGeometry relative="1" as="geometry" />
        </mxCell>
        <mxCell id="LnpvLxS2E-WMHGSATWVI-144" value="PrintList" style="shape=process;whiteSpace=wrap;html=1;backgroundOutline=1;" parent="1" vertex="1">
          <mxGeometry x="420" y="630" width="160" height="20" as="geometry" />
        </mxCell>
        <mxCell id="LnpvLxS2E-WMHGSATWVI-149" style="edgeStyle=orthogonalEdgeStyle;rounded=0;orthogonalLoop=1;jettySize=auto;html=1;entryX=0.5;entryY=0;entryDx=0;entryDy=0;" parent="1" source="LnpvLxS2E-WMHGSATWVI-146" target="LnpvLxS2E-WMHGSATWVI-148" edge="1">
          <mxGeometry relative="1" as="geometry" />
        </mxCell>
        <mxCell id="LnpvLxS2E-WMHGSATWVI-146" value="Выводим:&lt;br&gt;1. Добавить&amp;nbsp;2. Вывести&amp;nbsp;3. Вычесть&amp;nbsp;4. Поиск&amp;nbsp;5. Выход" style="shape=parallelogram;perimeter=parallelogramPerimeter;whiteSpace=wrap;html=1;fixedSize=1;" parent="1" vertex="1">
          <mxGeometry x="420" y="665" width="160" height="40" as="geometry" />
        </mxCell>
        <mxCell id="LnpvLxS2E-WMHGSATWVI-148" value="Конец" style="rounded=1;whiteSpace=wrap;html=1;arcSize=60;" parent="1" vertex="1">
          <mxGeometry x="420" y="725" width="160" height="20" as="geometry" />
        </mxCell>
        <mxCell id="LnpvLxS2E-WMHGSATWVI-153" style="edgeStyle=orthogonalEdgeStyle;rounded=0;orthogonalLoop=1;jettySize=auto;html=1;entryX=0.5;entryY=0;entryDx=0;entryDy=0;" parent="1" source="LnpvLxS2E-WMHGSATWVI-151" target="LnpvLxS2E-WMHGSATWVI-152" edge="1">
          <mxGeometry relative="1" as="geometry" />
        </mxCell>
        <mxCell id="LnpvLxS2E-WMHGSATWVI-151" value="Начало" style="rounded=1;whiteSpace=wrap;html=1;arcSize=60;" parent="1" vertex="1">
          <mxGeometry x="420" y="755" width="160" height="20" as="geometry" />
        </mxCell>
        <mxCell id="LnpvLxS2E-WMHGSATWVI-155" value="" style="edgeStyle=orthogonalEdgeStyle;rounded=0;orthogonalLoop=1;jettySize=auto;html=1;" parent="1" source="LnpvLxS2E-WMHGSATWVI-152" target="LnpvLxS2E-WMHGSATWVI-154" edge="1">
          <mxGeometry relative="1" as="geometry" />
        </mxCell>
        <mxCell id="LnpvLxS2E-WMHGSATWVI-152" value="ChooseDataTypeMenu" style="shape=process;whiteSpace=wrap;html=1;backgroundOutline=1;" parent="1" vertex="1">
          <mxGeometry x="420" y="795" width="160" height="20" as="geometry" />
        </mxCell>
        <mxCell id="LnpvLxS2E-WMHGSATWVI-163" value="" style="edgeStyle=orthogonalEdgeStyle;rounded=0;orthogonalLoop=1;jettySize=auto;html=1;" parent="1" source="LnpvLxS2E-WMHGSATWVI-154" target="LnpvLxS2E-WMHGSATWVI-162" edge="1">
          <mxGeometry relative="1" as="geometry" />
        </mxCell>
        <mxCell id="LnpvLxS2E-WMHGSATWVI-154" value="Выводим:&lt;br&gt;Выберите тип данных&amp;nbsp;1. Динамический&amp;nbsp;2. Статический&amp;nbsp;Ваш выбор" style="shape=parallelogram;perimeter=parallelogramPerimeter;whiteSpace=wrap;html=1;fixedSize=1;" parent="1" vertex="1">
          <mxGeometry x="420" y="835" width="160" height="60" as="geometry" />
        </mxCell>
        <mxCell id="LnpvLxS2E-WMHGSATWVI-159" value="" style="edgeStyle=orthogonalEdgeStyle;rounded=0;orthogonalLoop=1;jettySize=auto;html=1;" parent="1" source="LnpvLxS2E-WMHGSATWVI-156" target="LnpvLxS2E-WMHGSATWVI-158" edge="1">
          <mxGeometry relative="1" as="geometry" />
        </mxCell>
        <mxCell id="LnpvLxS2E-WMHGSATWVI-156" value="Вводим&amp;nbsp;choice, data, valueToSubtract, searchValue, dataTypeChoice" style="shape=parallelogram;perimeter=parallelogramPerimeter;whiteSpace=wrap;html=1;fixedSize=1;" parent="1" vertex="1">
          <mxGeometry x="420" y="989" width="160" height="60" as="geometry" />
        </mxCell>
        <mxCell id="LnpvLxS2E-WMHGSATWVI-158" value="isDynamic := False" style="rounded=0;whiteSpace=wrap;html=1;" parent="1" vertex="1">
          <mxGeometry x="420" y="1059" width="160" height="20" as="geometry" />
        </mxCell>
        <mxCell id="LnpvLxS2E-WMHGSATWVI-160" value="ChooseDataTypeMenu" style="shape=process;whiteSpace=wrap;html=1;backgroundOutline=1;" parent="1" vertex="1">
          <mxGeometry x="420" y="1100" width="160" height="20" as="geometry" />
        </mxCell>
        <mxCell id="LnpvLxS2E-WMHGSATWVI-162" value="Конец" style="rounded=1;whiteSpace=wrap;html=1;arcSize=60;" parent="1" vertex="1">
          <mxGeometry x="420" y="910" width="160" height="20" as="geometry" />
        </mxCell>
        <mxCell id="LnpvLxS2E-WMHGSATWVI-165" value="Начало" style="rounded=1;whiteSpace=wrap;html=1;arcSize=60;" parent="1" vertex="1">
          <mxGeometry x="420" y="949" width="160" height="20" as="geometry" />
        </mxCell>
        <mxCell id="LnpvLxS2E-WMHGSATWVI-168" value="" style="endArrow=classic;html=1;rounded=0;exitX=0.5;exitY=1;exitDx=0;exitDy=0;entryX=0.5;entryY=0;entryDx=0;entryDy=0;" parent="1" source="LnpvLxS2E-WMHGSATWVI-165" target="LnpvLxS2E-WMHGSATWVI-156" edge="1">
          <mxGeometry width="50" height="50" relative="1" as="geometry">
            <mxPoint x="530" y="929" as="sourcePoint" />
            <mxPoint x="580" y="879" as="targetPoint" />
          </mxGeometry>
        </mxCell>
        <mxCell id="LnpvLxS2E-WMHGSATWVI-169" value="" style="endArrow=none;html=1;rounded=0;exitX=0.5;exitY=1;exitDx=0;exitDy=0;" parent="1" source="LnpvLxS2E-WMHGSATWVI-160" edge="1">
          <mxGeometry width="50" height="50" relative="1" as="geometry">
            <mxPoint x="530" y="1140" as="sourcePoint" />
            <mxPoint x="500" y="1140" as="targetPoint" />
          </mxGeometry>
        </mxCell>
        <mxCell id="LnpvLxS2E-WMHGSATWVI-170" value="dataTypeChoice of" style="rhombus;whiteSpace=wrap;html=1;" parent="1" vertex="1">
          <mxGeometry x="640" y="25" width="160" height="30" as="geometry" />
        </mxCell>
        <mxCell id="LnpvLxS2E-WMHGSATWVI-171" value="" style="endArrow=classic;html=1;rounded=0;entryX=0.5;entryY=0;entryDx=0;entryDy=0;" parent="1" target="LnpvLxS2E-WMHGSATWVI-170" edge="1">
          <mxGeometry width="50" height="50" relative="1" as="geometry">
            <mxPoint x="720" y="10" as="sourcePoint" />
            <mxPoint x="510" y="40" as="targetPoint" />
            <Array as="points">
              <mxPoint x="720" y="10" />
            </Array>
          </mxGeometry>
        </mxCell>
        <mxCell id="LnpvLxS2E-WMHGSATWVI-173" value="1: isDynamic := True" style="rounded=0;whiteSpace=wrap;html=1;" parent="1" vertex="1">
          <mxGeometry x="640" y="70" width="160" height="20" as="geometry" />
        </mxCell>
        <mxCell id="LnpvLxS2E-WMHGSATWVI-175" value="2: isDynamic := False" style="rounded=0;whiteSpace=wrap;html=1;" parent="1" vertex="1">
          <mxGeometry x="640" y="110" width="160" height="20" as="geometry" />
        </mxCell>
        <mxCell id="LnpvLxS2E-WMHGSATWVI-176" value="" style="endArrow=classic;html=1;rounded=0;entryX=0.5;entryY=0;entryDx=0;entryDy=0;exitX=0.5;exitY=1;exitDx=0;exitDy=0;" parent="1" source="LnpvLxS2E-WMHGSATWVI-170" target="LnpvLxS2E-WMHGSATWVI-173" edge="1">
          <mxGeometry width="50" height="50" relative="1" as="geometry">
            <mxPoint x="630" y="80" as="sourcePoint" />
            <mxPoint x="790" y="60" as="targetPoint" />
            <Array as="points" />
          </mxGeometry>
        </mxCell>
        <mxCell id="LnpvLxS2E-WMHGSATWVI-182" value="" style="edgeStyle=orthogonalEdgeStyle;rounded=0;orthogonalLoop=1;jettySize=auto;html=1;" parent="1" source="LnpvLxS2E-WMHGSATWVI-177" target="LnpvLxS2E-WMHGSATWVI-181" edge="1">
          <mxGeometry relative="1" as="geometry" />
        </mxCell>
        <mxCell id="LnpvLxS2E-WMHGSATWVI-177" value="Выводим ошибку" style="shape=parallelogram;perimeter=parallelogramPerimeter;whiteSpace=wrap;html=1;fixedSize=1;" parent="1" vertex="1">
          <mxGeometry x="640" y="160" width="160" height="20" as="geometry" />
        </mxCell>
        <mxCell id="LnpvLxS2E-WMHGSATWVI-178" value="" style="endArrow=classic;html=1;rounded=0;exitX=1;exitY=0.5;exitDx=0;exitDy=0;entryX=0.5;entryY=0;entryDx=0;entryDy=0;" parent="1" source="LnpvLxS2E-WMHGSATWVI-170" target="LnpvLxS2E-WMHGSATWVI-177" edge="1">
          <mxGeometry width="50" height="50" relative="1" as="geometry">
            <mxPoint x="720" y="140" as="sourcePoint" />
            <mxPoint x="720" y="140" as="targetPoint" />
            <Array as="points">
              <mxPoint x="820" y="40" />
              <mxPoint x="820" y="150" />
              <mxPoint x="720" y="150" />
            </Array>
          </mxGeometry>
        </mxCell>
        <mxCell id="LnpvLxS2E-WMHGSATWVI-184" value="" style="edgeStyle=orthogonalEdgeStyle;rounded=0;orthogonalLoop=1;jettySize=auto;html=1;" parent="1" source="LnpvLxS2E-WMHGSATWVI-181" target="LnpvLxS2E-WMHGSATWVI-183" edge="1">
          <mxGeometry relative="1" as="geometry" />
        </mxCell>
        <mxCell id="LnpvLxS2E-WMHGSATWVI-181" value="isDynamic := False" style="rounded=0;whiteSpace=wrap;html=1;" parent="1" vertex="1">
          <mxGeometry x="640" y="195" width="160" height="20" as="geometry" />
        </mxCell>
        <mxCell id="LnpvLxS2E-WMHGSATWVI-187" value="" style="edgeStyle=orthogonalEdgeStyle;rounded=0;orthogonalLoop=1;jettySize=auto;html=1;" parent="1" source="LnpvLxS2E-WMHGSATWVI-183" target="LnpvLxS2E-WMHGSATWVI-186" edge="1">
          <mxGeometry relative="1" as="geometry" />
        </mxCell>
        <mxCell id="LnpvLxS2E-WMHGSATWVI-183" value="isDynamic" style="rhombus;whiteSpace=wrap;html=1;" parent="1" vertex="1">
          <mxGeometry x="640" y="235" width="160" height="30" as="geometry" />
        </mxCell>
        <mxCell id="LnpvLxS2E-WMHGSATWVI-185" value="" style="endArrow=classic;html=1;rounded=0;exitX=0.5;exitY=1;exitDx=0;exitDy=0;" parent="1" source="LnpvLxS2E-WMHGSATWVI-175" edge="1">
          <mxGeometry width="50" height="50" relative="1" as="geometry">
            <mxPoint x="660" y="210" as="sourcePoint" />
            <mxPoint x="720" y="230" as="targetPoint" />
            <Array as="points">
              <mxPoint x="720" y="140" />
              <mxPoint x="630" y="140" />
              <mxPoint x="630" y="230" />
            </Array>
          </mxGeometry>
        </mxCell>
        <mxCell id="LnpvLxS2E-WMHGSATWVI-186" value="headDynamic := nil" style="rounded=0;whiteSpace=wrap;html=1;" parent="1" vertex="1">
          <mxGeometry x="640" y="280" width="160" height="20" as="geometry" />
        </mxCell>
        <mxCell id="LnpvLxS2E-WMHGSATWVI-191" value="" style="edgeStyle=orthogonalEdgeStyle;rounded=0;orthogonalLoop=1;jettySize=auto;html=1;" parent="1" source="LnpvLxS2E-WMHGSATWVI-188" target="LnpvLxS2E-WMHGSATWVI-190" edge="1">
          <mxGeometry relative="1" as="geometry" />
        </mxCell>
        <mxCell id="LnpvLxS2E-WMHGSATWVI-188" value="headStatic := nil" style="rounded=0;whiteSpace=wrap;html=1;" parent="1" vertex="1">
          <mxGeometry x="640" y="320" width="160" height="20" as="geometry" />
        </mxCell>
        <mxCell id="LnpvLxS2E-WMHGSATWVI-189" value="" style="endArrow=classic;html=1;rounded=0;exitX=1;exitY=0.5;exitDx=0;exitDy=0;entryX=0.5;entryY=0;entryDx=0;entryDy=0;" parent="1" source="LnpvLxS2E-WMHGSATWVI-183" target="LnpvLxS2E-WMHGSATWVI-188" edge="1">
          <mxGeometry width="50" height="50" relative="1" as="geometry">
            <mxPoint x="720" y="300" as="sourcePoint" />
            <mxPoint x="770" y="250" as="targetPoint" />
            <Array as="points">
              <mxPoint x="810" y="250" />
              <mxPoint x="810" y="310" />
              <mxPoint x="720" y="310" />
            </Array>
          </mxGeometry>
        </mxCell>
        <mxCell id="LnpvLxS2E-WMHGSATWVI-193" value="" style="edgeStyle=orthogonalEdgeStyle;rounded=0;orthogonalLoop=1;jettySize=auto;html=1;" parent="1" source="LnpvLxS2E-WMHGSATWVI-190" target="LnpvLxS2E-WMHGSATWVI-192" edge="1">
          <mxGeometry relative="1" as="geometry" />
        </mxCell>
        <mxCell id="LnpvLxS2E-WMHGSATWVI-190" value="Цикл 1" style="shape=loopLimit;whiteSpace=wrap;html=1;" parent="1" vertex="1">
          <mxGeometry x="640" y="360" width="160" height="20" as="geometry" />
        </mxCell>
        <mxCell id="LnpvLxS2E-WMHGSATWVI-195" value="" style="edgeStyle=orthogonalEdgeStyle;rounded=0;orthogonalLoop=1;jettySize=auto;html=1;" parent="1" source="LnpvLxS2E-WMHGSATWVI-192" target="LnpvLxS2E-WMHGSATWVI-194" edge="1">
          <mxGeometry relative="1" as="geometry" />
        </mxCell>
        <mxCell id="LnpvLxS2E-WMHGSATWVI-192" value="ClrScr;&amp;nbsp;&amp;nbsp;DisplayMenu" style="shape=process;whiteSpace=wrap;html=1;backgroundOutline=1;" parent="1" vertex="1">
          <mxGeometry x="640" y="400" width="160" height="20" as="geometry" />
        </mxCell>
        <mxCell id="LnpvLxS2E-WMHGSATWVI-197" value="" style="edgeStyle=orthogonalEdgeStyle;rounded=0;orthogonalLoop=1;jettySize=auto;html=1;" parent="1" source="LnpvLxS2E-WMHGSATWVI-194" target="LnpvLxS2E-WMHGSATWVI-196" edge="1">
          <mxGeometry relative="1" as="geometry" />
        </mxCell>
        <mxCell id="LnpvLxS2E-WMHGSATWVI-194" value="Выводим: выберите действие" style="shape=parallelogram;perimeter=parallelogramPerimeter;whiteSpace=wrap;html=1;fixedSize=1;" parent="1" vertex="1">
          <mxGeometry x="640" y="440" width="160" height="30" as="geometry" />
        </mxCell>
        <mxCell id="LnpvLxS2E-WMHGSATWVI-196" value="case choice" style="rhombus;whiteSpace=wrap;html=1;" parent="1" vertex="1">
          <mxGeometry x="640" y="490" width="160" height="30" as="geometry" />
        </mxCell>
        <mxCell id="LnpvLxS2E-WMHGSATWVI-198" value="" style="endArrow=classic;html=1;rounded=0;" parent="1" edge="1">
          <mxGeometry width="50" height="50" relative="1" as="geometry">
            <mxPoint x="620" y="530" as="sourcePoint" />
            <mxPoint x="720" y="540" as="targetPoint" />
            <Array as="points">
              <mxPoint x="640" y="530" />
              <mxPoint x="720" y="530" />
            </Array>
          </mxGeometry>
        </mxCell>
        <mxCell id="LnpvLxS2E-WMHGSATWVI-202" value="" style="edgeStyle=orthogonalEdgeStyle;rounded=0;orthogonalLoop=1;jettySize=auto;html=1;" parent="1" source="LnpvLxS2E-WMHGSATWVI-200" target="LnpvLxS2E-WMHGSATWVI-201" edge="1">
          <mxGeometry relative="1" as="geometry" />
        </mxCell>
        <mxCell id="LnpvLxS2E-WMHGSATWVI-200" value="1:" style="rounded=0;whiteSpace=wrap;html=1;" parent="1" vertex="1">
          <mxGeometry x="640" y="540" width="160" height="20" as="geometry" />
        </mxCell>
        <mxCell id="LnpvLxS2E-WMHGSATWVI-204" value="" style="edgeStyle=orthogonalEdgeStyle;rounded=0;orthogonalLoop=1;jettySize=auto;html=1;" parent="1" source="LnpvLxS2E-WMHGSATWVI-201" target="LnpvLxS2E-WMHGSATWVI-203" edge="1">
          <mxGeometry relative="1" as="geometry" />
        </mxCell>
        <mxCell id="LnpvLxS2E-WMHGSATWVI-201" value="Выводим Ввод данных" style="shape=parallelogram;perimeter=parallelogramPerimeter;whiteSpace=wrap;html=1;fixedSize=1;" parent="1" vertex="1">
          <mxGeometry x="640" y="575" width="160" height="20" as="geometry" />
        </mxCell>
        <mxCell id="LnpvLxS2E-WMHGSATWVI-207" value="" style="edgeStyle=orthogonalEdgeStyle;rounded=0;orthogonalLoop=1;jettySize=auto;html=1;" parent="1" source="LnpvLxS2E-WMHGSATWVI-203" target="LnpvLxS2E-WMHGSATWVI-205" edge="1">
          <mxGeometry relative="1" as="geometry" />
        </mxCell>
        <mxCell id="LnpvLxS2E-WMHGSATWVI-203" value="isDynamic" style="rhombus;whiteSpace=wrap;html=1;" parent="1" vertex="1">
          <mxGeometry x="640" y="605" width="160" height="30" as="geometry" />
        </mxCell>
        <mxCell id="LnpvLxS2E-WMHGSATWVI-205" value="&amp;nbsp;AddNodeDynamic(data)" style="rounded=0;whiteSpace=wrap;html=1;" parent="1" vertex="1">
          <mxGeometry x="640" y="650" width="160" height="20" as="geometry" />
        </mxCell>
        <mxCell id="LnpvLxS2E-WMHGSATWVI-208" value="&amp;nbsp;AddNodeDynamic(data)" style="rounded=0;whiteSpace=wrap;html=1;" parent="1" vertex="1">
          <mxGeometry x="640" y="690" width="160" height="20" as="geometry" />
        </mxCell>
        <mxCell id="LnpvLxS2E-WMHGSATWVI-209" value="" style="edgeStyle=orthogonalEdgeStyle;rounded=0;orthogonalLoop=1;jettySize=auto;html=1;exitX=0;exitY=0.5;exitDx=0;exitDy=0;entryX=0.5;entryY=0;entryDx=0;entryDy=0;" parent="1" source="LnpvLxS2E-WMHGSATWVI-203" target="LnpvLxS2E-WMHGSATWVI-208" edge="1">
          <mxGeometry relative="1" as="geometry">
            <mxPoint x="730" y="645" as="sourcePoint" />
            <mxPoint x="730" y="660" as="targetPoint" />
            <Array as="points">
              <mxPoint x="630" y="620" />
              <mxPoint x="630" y="680" />
              <mxPoint x="720" y="680" />
            </Array>
          </mxGeometry>
        </mxCell>
        <mxCell id="LnpvLxS2E-WMHGSATWVI-210" value="" style="edgeStyle=orthogonalEdgeStyle;rounded=0;orthogonalLoop=1;jettySize=auto;html=1;" parent="1" source="LnpvLxS2E-WMHGSATWVI-211" target="LnpvLxS2E-WMHGSATWVI-213" edge="1">
          <mxGeometry relative="1" as="geometry" />
        </mxCell>
        <mxCell id="LnpvLxS2E-WMHGSATWVI-211" value="2:" style="rounded=0;whiteSpace=wrap;html=1;" parent="1" vertex="1">
          <mxGeometry x="640" y="730" width="160" height="20" as="geometry" />
        </mxCell>
        <mxCell id="LnpvLxS2E-WMHGSATWVI-213" value="Выводим Нажмите enter" style="shape=parallelogram;perimeter=parallelogramPerimeter;whiteSpace=wrap;html=1;fixedSize=1;" parent="1" vertex="1">
          <mxGeometry x="640" y="765" width="160" height="20" as="geometry" />
        </mxCell>
        <mxCell id="LnpvLxS2E-WMHGSATWVI-219" value="" style="endArrow=classic;html=1;rounded=0;entryX=0.5;entryY=0;entryDx=0;entryDy=0;exitX=0;exitY=0.5;exitDx=0;exitDy=0;" parent="1" source="LnpvLxS2E-WMHGSATWVI-196" target="LnpvLxS2E-WMHGSATWVI-211" edge="1">
          <mxGeometry width="50" height="50" relative="1" as="geometry">
            <mxPoint x="620" y="500" as="sourcePoint" />
            <mxPoint x="750" y="720" as="targetPoint" />
            <Array as="points">
              <mxPoint x="620" y="505" />
              <mxPoint x="620" y="720" />
              <mxPoint x="720" y="720" />
            </Array>
          </mxGeometry>
        </mxCell>
        <mxCell id="LnpvLxS2E-WMHGSATWVI-223" value="" style="edgeStyle=orthogonalEdgeStyle;rounded=0;orthogonalLoop=1;jettySize=auto;html=1;" parent="1" source="LnpvLxS2E-WMHGSATWVI-220" target="LnpvLxS2E-WMHGSATWVI-222" edge="1">
          <mxGeometry relative="1" as="geometry" />
        </mxCell>
        <mxCell id="LnpvLxS2E-WMHGSATWVI-220" value="3:" style="rounded=0;whiteSpace=wrap;html=1;" parent="1" vertex="1">
          <mxGeometry x="640" y="800" width="160" height="20" as="geometry" />
        </mxCell>
        <mxCell id="LnpvLxS2E-WMHGSATWVI-221" value="" style="endArrow=classic;html=1;rounded=0;entryX=0.5;entryY=0;entryDx=0;entryDy=0;" parent="1" target="LnpvLxS2E-WMHGSATWVI-220" edge="1">
          <mxGeometry width="50" height="50" relative="1" as="geometry">
            <mxPoint x="620" y="720" as="sourcePoint" />
            <mxPoint x="730" y="690" as="targetPoint" />
            <Array as="points">
              <mxPoint x="620" y="790" />
              <mxPoint x="720" y="790" />
            </Array>
          </mxGeometry>
        </mxCell>
        <mxCell id="LnpvLxS2E-WMHGSATWVI-225" value="" style="edgeStyle=orthogonalEdgeStyle;rounded=0;orthogonalLoop=1;jettySize=auto;html=1;" parent="1" source="LnpvLxS2E-WMHGSATWVI-222" target="LnpvLxS2E-WMHGSATWVI-224" edge="1">
          <mxGeometry relative="1" as="geometry" />
        </mxCell>
        <mxCell id="LnpvLxS2E-WMHGSATWVI-222" value="Вводим&amp;nbsp;valueToSubtract" style="shape=parallelogram;perimeter=parallelogramPerimeter;whiteSpace=wrap;html=1;fixedSize=1;" parent="1" vertex="1">
          <mxGeometry x="640" y="840" width="160" height="20" as="geometry" />
        </mxCell>
        <mxCell id="LnpvLxS2E-WMHGSATWVI-224" value="SubtractFromList" style="shape=process;whiteSpace=wrap;html=1;backgroundOutline=1;" parent="1" vertex="1">
          <mxGeometry x="640" y="880" width="160" height="20" as="geometry" />
        </mxCell>
        <mxCell id="LnpvLxS2E-WMHGSATWVI-226" value="4:&lt;br&gt;" style="rounded=0;whiteSpace=wrap;html=1;" parent="1" vertex="1">
          <mxGeometry x="640" y="920" width="160" height="20" as="geometry" />
        </mxCell>
        <mxCell id="LnpvLxS2E-WMHGSATWVI-227" value="" style="endArrow=classic;html=1;rounded=0;entryX=0.5;entryY=0;entryDx=0;entryDy=0;" parent="1" target="LnpvLxS2E-WMHGSATWVI-226" edge="1">
          <mxGeometry width="50" height="50" relative="1" as="geometry">
            <mxPoint x="620" y="790" as="sourcePoint" />
            <mxPoint x="690" y="830" as="targetPoint" />
            <Array as="points">
              <mxPoint x="620" y="910" />
              <mxPoint x="720" y="910" />
            </Array>
          </mxGeometry>
        </mxCell>
        <mxCell id="LnpvLxS2E-WMHGSATWVI-233" value="" style="edgeStyle=orthogonalEdgeStyle;rounded=0;orthogonalLoop=1;jettySize=auto;html=1;" parent="1" source="LnpvLxS2E-WMHGSATWVI-228" target="LnpvLxS2E-WMHGSATWVI-229" edge="1">
          <mxGeometry relative="1" as="geometry" />
        </mxCell>
        <mxCell id="LnpvLxS2E-WMHGSATWVI-228" value="Вводим&amp;nbsp;searchValue" style="shape=parallelogram;perimeter=parallelogramPerimeter;whiteSpace=wrap;html=1;fixedSize=1;" parent="1" vertex="1">
          <mxGeometry x="640" y="960" width="160" height="20" as="geometry" />
        </mxCell>
        <mxCell id="LnpvLxS2E-WMHGSATWVI-229" value="searchValue" style="shape=process;whiteSpace=wrap;html=1;backgroundOutline=1;" parent="1" vertex="1">
          <mxGeometry x="640" y="1000" width="160" height="20" as="geometry" />
        </mxCell>
        <mxCell id="LnpvLxS2E-WMHGSATWVI-232" value="" style="endArrow=classic;html=1;rounded=0;exitX=0.5;exitY=1;exitDx=0;exitDy=0;entryX=0.5;entryY=0;entryDx=0;entryDy=0;" parent="1" source="LnpvLxS2E-WMHGSATWVI-226" target="LnpvLxS2E-WMHGSATWVI-228" edge="1">
          <mxGeometry width="50" height="50" relative="1" as="geometry">
            <mxPoint x="700" y="910" as="sourcePoint" />
            <mxPoint x="750" y="860" as="targetPoint" />
          </mxGeometry>
        </mxCell>
        <mxCell id="LnpvLxS2E-WMHGSATWVI-236" value="" style="edgeStyle=orthogonalEdgeStyle;rounded=0;orthogonalLoop=1;jettySize=auto;html=1;exitX=0.5;exitY=0;exitDx=0;exitDy=0;" parent="1" source="uM9r_w0jykjSQlXKHZ29-25" target="LnpvLxS2E-WMHGSATWVI-235" edge="1">
          <mxGeometry relative="1" as="geometry">
            <mxPoint x="720" y="1120" as="sourcePoint" />
          </mxGeometry>
        </mxCell>
        <mxCell id="uM9r_w0jykjSQlXKHZ29-26" value="" style="edgeStyle=orthogonalEdgeStyle;rounded=0;orthogonalLoop=1;jettySize=auto;html=1;" edge="1" parent="1" source="LnpvLxS2E-WMHGSATWVI-234" target="uM9r_w0jykjSQlXKHZ29-25">
          <mxGeometry relative="1" as="geometry" />
        </mxCell>
        <mxCell id="LnpvLxS2E-WMHGSATWVI-234" value="5:" style="rounded=0;whiteSpace=wrap;html=1;" parent="1" vertex="1">
          <mxGeometry x="640" y="1050" width="160" height="20" as="geometry" />
        </mxCell>
        <mxCell id="LnpvLxS2E-WMHGSATWVI-241" value="" style="edgeStyle=orthogonalEdgeStyle;rounded=0;orthogonalLoop=1;jettySize=auto;html=1;" parent="1" source="LnpvLxS2E-WMHGSATWVI-235" target="LnpvLxS2E-WMHGSATWVI-238" edge="1">
          <mxGeometry relative="1" as="geometry" />
        </mxCell>
        <mxCell id="LnpvLxS2E-WMHGSATWVI-235" value="Выводим ошибку" style="shape=parallelogram;perimeter=parallelogramPerimeter;whiteSpace=wrap;html=1;fixedSize=1;" parent="1" vertex="1">
          <mxGeometry x="640" y="1130" width="160" height="20" as="geometry" />
        </mxCell>
        <mxCell id="LnpvLxS2E-WMHGSATWVI-237" value="" style="endArrow=classic;html=1;rounded=0;entryX=0.5;entryY=0;entryDx=0;entryDy=0;" parent="1" target="LnpvLxS2E-WMHGSATWVI-234" edge="1">
          <mxGeometry width="50" height="50" relative="1" as="geometry">
            <mxPoint x="620" y="910" as="sourcePoint" />
            <mxPoint x="750" y="900" as="targetPoint" />
            <Array as="points">
              <mxPoint x="620" y="1040" />
              <mxPoint x="720" y="1040" />
            </Array>
          </mxGeometry>
        </mxCell>
        <mxCell id="LnpvLxS2E-WMHGSATWVI-238" value="Конец" style="rounded=1;whiteSpace=wrap;html=1;arcSize=60;" parent="1" vertex="1">
          <mxGeometry x="640" y="1160" width="160" height="20" as="geometry" />
        </mxCell>
        <mxCell id="uM9r_w0jykjSQlXKHZ29-1" value="" style="endArrow=classic;html=1;rounded=0;exitX=0.5;exitY=1;exitDx=0;exitDy=0;entryX=0.5;entryY=0;entryDx=0;entryDy=0;" edge="1" parent="1" source="LnpvLxS2E-WMHGSATWVI-57" target="LnpvLxS2E-WMHGSATWVI-62">
          <mxGeometry width="50" height="50" relative="1" as="geometry">
            <mxPoint x="390" y="280" as="sourcePoint" />
            <mxPoint x="440" y="230" as="targetPoint" />
          </mxGeometry>
        </mxCell>
        <mxCell id="uM9r_w0jykjSQlXKHZ29-2" value="" style="endArrow=classic;html=1;rounded=0;exitX=0.5;exitY=1;exitDx=0;exitDy=0;entryX=0.5;entryY=0;entryDx=0;entryDy=0;" edge="1" parent="1" source="LnpvLxS2E-WMHGSATWVI-72" target="LnpvLxS2E-WMHGSATWVI-74">
          <mxGeometry width="50" height="50" relative="1" as="geometry">
            <mxPoint x="380" y="520" as="sourcePoint" />
            <mxPoint x="430" y="470" as="targetPoint" />
          </mxGeometry>
        </mxCell>
        <mxCell id="uM9r_w0jykjSQlXKHZ29-3" value="" style="endArrow=classic;html=1;rounded=0;exitX=1;exitY=0.5;exitDx=0;exitDy=0;" edge="1" parent="1" source="LnpvLxS2E-WMHGSATWVI-69">
          <mxGeometry width="50" height="50" relative="1" as="geometry">
            <mxPoint x="380" y="520" as="sourcePoint" />
            <mxPoint x="300" y="520" as="targetPoint" />
            <Array as="points">
              <mxPoint x="390" y="445" />
              <mxPoint x="390" y="520" />
            </Array>
          </mxGeometry>
        </mxCell>
        <mxCell id="uM9r_w0jykjSQlXKHZ29-5" value="" style="edgeStyle=orthogonalEdgeStyle;rounded=0;orthogonalLoop=1;jettySize=auto;html=1;" edge="1" parent="1" source="uM9r_w0jykjSQlXKHZ29-4" target="LnpvLxS2E-WMHGSATWVI-78">
          <mxGeometry relative="1" as="geometry" />
        </mxCell>
        <mxCell id="uM9r_w0jykjSQlXKHZ29-4" value="Цикл 1" style="shape=loopLimit;whiteSpace=wrap;html=1;direction=west;" vertex="1" parent="1">
          <mxGeometry x="220" y="590" width="160" height="10" as="geometry" />
        </mxCell>
        <mxCell id="uM9r_w0jykjSQlXKHZ29-6" value="" style="endArrow=classic;html=1;rounded=0;exitX=1;exitY=0.5;exitDx=0;exitDy=0;strokeWidth=2;" edge="1" parent="1">
          <mxGeometry width="50" height="50" relative="1" as="geometry">
            <mxPoint x="390" y="879" as="sourcePoint" />
            <mxPoint x="300" y="939" as="targetPoint" />
            <Array as="points">
              <mxPoint x="400" y="879" />
              <mxPoint x="400" y="939" />
            </Array>
          </mxGeometry>
        </mxCell>
        <mxCell id="uM9r_w0jykjSQlXKHZ29-10" value="" style="edgeStyle=orthogonalEdgeStyle;rounded=0;orthogonalLoop=1;jettySize=auto;html=1;entryX=0.5;entryY=0;entryDx=0;entryDy=0;" edge="1" parent="1" target="LnpvLxS2E-WMHGSATWVI-94">
          <mxGeometry relative="1" as="geometry">
            <mxPoint x="300" y="889" as="sourcePoint" />
            <mxPoint x="310" y="879" as="targetPoint" />
          </mxGeometry>
        </mxCell>
        <mxCell id="uM9r_w0jykjSQlXKHZ29-12" value="" style="endArrow=classic;html=1;rounded=0;exitX=1;exitY=0.5;exitDx=0;exitDy=0;entryX=0.5;entryY=0;entryDx=0;entryDy=0;" edge="1" parent="1" source="LnpvLxS2E-WMHGSATWVI-103" target="LnpvLxS2E-WMHGSATWVI-107">
          <mxGeometry width="50" height="50" relative="1" as="geometry">
            <mxPoint x="280" y="1099" as="sourcePoint" />
            <mxPoint x="300" y="1129" as="targetPoint" />
            <Array as="points">
              <mxPoint x="390" y="1069" />
              <mxPoint x="390" y="1129" />
              <mxPoint x="300" y="1129" />
            </Array>
          </mxGeometry>
        </mxCell>
        <mxCell id="uM9r_w0jykjSQlXKHZ29-13" value="" style="endArrow=classic;html=1;rounded=0;exitX=1;exitY=0.5;exitDx=0;exitDy=0;strokeWidth=2;" edge="1" parent="1">
          <mxGeometry width="50" height="50" relative="1" as="geometry">
            <mxPoint x="380" y="1109" as="sourcePoint" />
            <mxPoint x="300" y="1169" as="targetPoint" />
            <Array as="points">
              <mxPoint x="390" y="1109" />
              <mxPoint x="390" y="1169" />
            </Array>
          </mxGeometry>
        </mxCell>
        <mxCell id="uM9r_w0jykjSQlXKHZ29-15" value="" style="endArrow=classic;html=1;rounded=0;exitX=0.5;exitY=1;exitDx=0;exitDy=0;" edge="1" parent="1" source="LnpvLxS2E-WMHGSATWVI-107">
          <mxGeometry width="50" height="50" relative="1" as="geometry">
            <mxPoint x="290" y="1190" as="sourcePoint" />
            <mxPoint x="300" y="1180" as="targetPoint" />
          </mxGeometry>
        </mxCell>
        <mxCell id="uM9r_w0jykjSQlXKHZ29-16" value="Цикл 1" style="shape=loopLimit;whiteSpace=wrap;html=1;direction=west;" vertex="1" parent="1">
          <mxGeometry x="220" y="1180" width="160" height="10" as="geometry" />
        </mxCell>
        <mxCell id="uM9r_w0jykjSQlXKHZ29-18" value="" style="endArrow=classic;html=1;rounded=0;exitX=1;exitY=0.5;exitDx=0;exitDy=0;entryX=0.5;entryY=0;entryDx=0;entryDy=0;" edge="1" parent="1" source="LnpvLxS2E-WMHGSATWVI-119" target="LnpvLxS2E-WMHGSATWVI-123">
          <mxGeometry width="50" height="50" relative="1" as="geometry">
            <mxPoint x="430" y="160" as="sourcePoint" />
            <mxPoint x="480" y="110" as="targetPoint" />
            <Array as="points">
              <mxPoint x="590" y="115" />
              <mxPoint x="590" y="180" />
              <mxPoint x="500" y="180" />
            </Array>
          </mxGeometry>
        </mxCell>
        <mxCell id="uM9r_w0jykjSQlXKHZ29-19" value="Цикл 1" style="shape=loopLimit;whiteSpace=wrap;html=1;direction=west;" vertex="1" parent="1">
          <mxGeometry x="420" y="530" width="160" height="20" as="geometry" />
        </mxCell>
        <mxCell id="uM9r_w0jykjSQlXKHZ29-21" value="" style="endArrow=none;html=1;rounded=0;" edge="1" parent="1">
          <mxGeometry width="50" height="50" relative="1" as="geometry">
            <mxPoint x="400" y="750" as="sourcePoint" />
            <mxPoint x="600" y="750" as="targetPoint" />
          </mxGeometry>
        </mxCell>
        <mxCell id="uM9r_w0jykjSQlXKHZ29-22" value="" style="endArrow=none;html=1;rounded=0;" edge="1" parent="1">
          <mxGeometry width="50" height="50" relative="1" as="geometry">
            <mxPoint x="400" y="939.2" as="sourcePoint" />
            <mxPoint x="600" y="939.2" as="targetPoint" />
          </mxGeometry>
        </mxCell>
        <mxCell id="uM9r_w0jykjSQlXKHZ29-23" value="" style="endArrow=classic;html=1;rounded=0;exitX=0.5;exitY=1;exitDx=0;exitDy=0;entryX=0.5;entryY=0;entryDx=0;entryDy=0;" edge="1" parent="1" source="LnpvLxS2E-WMHGSATWVI-158" target="LnpvLxS2E-WMHGSATWVI-160">
          <mxGeometry width="50" height="50" relative="1" as="geometry">
            <mxPoint x="410" y="1080" as="sourcePoint" />
            <mxPoint x="460" y="1030" as="targetPoint" />
          </mxGeometry>
        </mxCell>
        <mxCell id="uM9r_w0jykjSQlXKHZ29-24" value="" style="endArrow=classic;html=1;rounded=0;exitX=1;exitY=0.5;exitDx=0;exitDy=0;entryX=0.5;entryY=0;entryDx=0;entryDy=0;" edge="1" parent="1" source="LnpvLxS2E-WMHGSATWVI-173" target="LnpvLxS2E-WMHGSATWVI-175">
          <mxGeometry width="50" height="50" relative="1" as="geometry">
            <mxPoint x="640" y="150" as="sourcePoint" />
            <mxPoint x="690" y="100" as="targetPoint" />
            <Array as="points">
              <mxPoint x="810" y="80" />
              <mxPoint x="810" y="100" />
              <mxPoint x="720" y="100" />
            </Array>
          </mxGeometry>
        </mxCell>
        <mxCell id="uM9r_w0jykjSQlXKHZ29-25" value="Цикл 1" style="shape=loopLimit;whiteSpace=wrap;html=1;direction=west;" vertex="1" parent="1">
          <mxGeometry x="640" y="1090" width="160" height="21" as="geometry" />
        </mxCell>
      </root>
    </mxGraphModel>
  </diagram>
</mxfile>
